<svg width="135" height="40" viewBox="0 0 135 40" fill="none" xmlns="http://www.w3.org/2000/svg">
<path fill-rule="evenodd" clip-rule="evenodd" d="M106.978 9.84483H101.034V12.3136H106.512C106.823 12.3136 106.978 12.1592 106.978 11.8491V9.84483ZM101.034 8.17945H106.978V6.11149C106.963 5.84439 106.823 5.7102 106.554 5.7102H101.456C101.16 5.72482 101.019 5.8659 101.034 6.133V8.17945ZM105.455 17.3979C106.793 16.3575 107.824 15.45 108.543 14.6758L109.685 15.921C108.825 16.8638 107.697 17.8483 106.301 18.8741C107.358 20.1962 108.627 21.3291 110.108 22.2711L108.543 23.4947C106.978 22.2853 105.983 21.385 105.56 20.7936C103.967 18.9519 103.099 16.681 102.959 13.9803H101.034V21.1102C102.231 20.745 103.254 20.3863 104.101 20.0341L104.672 21.7007C102.965 22.4603 100.857 23.0999 98.3466 23.6199L97.8601 21.9115C98.3401 21.7855 98.8115 21.6728 99.2769 21.5747V4.5502C99.2769 4.21343 99.446 4.04396 99.785 4.04396H108.205C108.557 4.04396 108.734 4.21343 108.734 4.5502V13.4315C108.72 13.7984 108.536 13.9803 108.183 13.9803H104.714C104.827 15.3584 105.073 16.4977 105.455 17.3979ZM96.718 15.4354L98.1986 15.9627C97.9304 16.9614 97.5996 17.9885 97.2049 19.0435L95.7652 18.4306C96.2168 17.2926 96.5342 16.2939 96.718 15.4354ZM93.4391 20.8573V14.4018H90.2233V12.7356H93.4391V10.5205H91.1541V8.85343H97.5219V10.5205H95.1941V12.7356H98.1986V14.4018H95.1941V20.4564C96.5476 20.0917 97.4439 19.8448 97.8812 19.7188L98.2405 21.4272C95.0535 22.2711 92.4657 22.8397 90.4769 23.1356L90.244 21.4272C91.217 21.2732 92.2828 21.0822 93.4391 20.8573ZM89.8631 15.8995L91.4711 15.4147C91.9365 16.5124 92.3035 17.8693 92.5718 19.4861L90.9216 19.887C90.611 18.1713 90.2582 16.8427 89.8631 15.8995ZM95.0466 5.09816C94.2146 6.19579 92.9513 7.35579 91.2593 8.57945L89.6725 7.50418C92.0279 6.06977 93.5651 4.69773 94.2849 3.38977H95.9554C95.9136 3.50332 95.8648 3.62203 95.8083 3.74934L95.8497 3.7059C96.8094 4.62074 97.8031 5.46461 98.8327 6.23751L97.4585 7.48224C96.583 6.70848 95.7794 5.91493 95.0466 5.09816ZM77.7508 21.8664H72.6324C72.3361 21.192 72.1162 20.721 71.9764 20.4535H78.4495C78.2235 20.9176 77.9906 21.3881 77.7508 21.8664ZM68.8235 18.0062H81.6438C81.699 18.0062 81.7283 18.0272 81.7283 18.0698V18.955C81.7283 18.998 81.699 19.0255 81.6438 19.0402H68.8235C68.7675 19.0255 68.7463 18.998 68.7601 18.955V18.0698C68.7463 18.0272 68.7675 18.0062 68.8235 18.0062ZM76.8632 10.8754H78.8519V11.9524H75.9527V3.59757H74.2818V11.9524H71.6374V10.8754H73.4144V9.54639H71.6374V8.42854H73.3294V7.09951H71.6374V6.06596H73.3294V4.73692H71.6374V3.59757H70.1352V4.73692H68.2318V6.06596H70.1352V7.09951H68.3168V8.42854H70.1352V9.54639H68.2318V10.8754H70.1352V11.9524H67.8294C67.6599 11.9524 67.5758 11.8604 67.5758 11.6776V3.87198H65.904V12.6694C65.904 13.1331 66.13 13.3649 66.5812 13.3649H83.8862C84.3516 13.3649 84.584 13.1331 84.584 12.6694V3.87198H82.9131V11.6776C82.9131 11.8604 82.8208 11.9524 82.6375 11.9524H80.3533V10.8754H82.0449V9.54639H80.3533V8.51284H82.0449V7.18381H80.3533V6.06596H82.1303V4.73692H80.3533V3.51284H78.8519V4.73692H76.8632V6.06596H78.8519V7.18381H76.8632V8.51284H78.8519V9.54639H76.8632V10.8754ZM84.9226 15.7275H65.6081V14.315H84.9226V15.7275ZM70.5798 21.2974C70.6639 21.4793 70.7493 21.6703 70.8334 21.8664H65.1009V23.364H85.3457V21.8664H79.5916C79.6477 21.7262 79.7189 21.5847 79.803 21.4445C79.9863 21.0518 80.1273 20.721 80.2261 20.4535H83.0192C83.1594 20.4535 83.2302 20.3834 83.2302 20.2423V16.7825C83.2302 16.6561 83.1594 16.592 83.0192 16.592H67.4485C67.3217 16.592 67.2583 16.6561 67.2583 16.7825V20.2423C67.2583 20.3834 67.3217 20.4535 67.4485 20.4535H70.1567C70.2551 20.678 70.3961 20.9602 70.5798 21.2974ZM59.2243 7.44417L60.557 8.73192C59.4567 10.082 57.9683 11.5027 56.0929 12.9926L54.8452 11.6209C56.8188 10.0179 58.2784 8.62568 59.2243 7.44417ZM44.0987 5.54525L44.373 3.66783C45.3745 3.73837 47.173 3.9289 49.7678 4.23815C52.2638 4.50568 54.485 4.84976 56.4315 5.2717L56.0295 7.12804C52.3487 6.2846 48.3716 5.75686 44.0987 5.54525ZM52.2219 13.9212V20.9457C52.2219 21.79 51.9256 22.4506 51.3334 22.9285C50.8957 23.3225 50.1624 23.5199 49.1329 23.5199C47.9623 23.5057 46.8202 23.365 45.7061 23.0979L45.5789 21.0721C47.7652 21.6777 49.154 21.8321 49.7462 21.5358C50.0986 21.2549 50.2819 20.8403 50.297 20.2915V9.82826C50.297 9.6317 50.1905 9.53278 49.9796 9.53278H41.7083V7.69708H51.6298C52.0382 7.7117 52.2353 7.93019 52.2219 8.3517V9.08977C53.1665 11.8468 54.1538 13.9702 55.1833 15.4605C56.438 17.2893 58.2995 19.1177 60.7679 20.9457L59.1177 22.1904C56.0576 19.7156 53.7591 16.959 52.2219 13.9212ZM41.1364 11.6635H48.5618L49.1122 12.3805C48.6321 15.7848 46.1927 18.8782 41.792 21.6631L40.3747 20.0807C42.0249 19.2377 43.2938 18.4291 44.1828 17.6554C44.9298 17.0076 45.6285 16.2205 46.2772 15.2923C46.7426 14.5887 47.0035 14.104 47.06 13.8364C47.1023 13.7379 47.1023 13.6609 47.06 13.605C46.9613 13.5341 46.806 13.4988 46.5946 13.4988H41.1364V11.6635ZM87.9184 39.4896H90.1961V31.3141H87.9184V39.4896ZM90.2578 29.4913C90.2578 29.8319 90.1418 30.1171 89.9089 30.3481C89.6751 30.5799 89.3913 30.6956 89.0571 30.6956C88.7284 30.6956 88.4459 30.5799 88.2104 30.3481C87.9745 30.1171 87.8563 29.8319 87.8563 29.4913C87.8563 29.1597 87.9745 28.8797 88.2104 28.6487C88.4459 28.4164 88.7284 28.3003 89.0571 28.3003C89.3913 28.3003 89.6751 28.4164 89.9089 28.6487C90.1418 28.8797 90.2578 29.1597 90.2578 29.4913ZM85.2913 38.8142C86.0504 38.2722 86.4304 37.4322 86.4304 36.295C86.4304 35.5505 86.2251 34.9092 85.8149 34.3716C85.4043 33.834 84.7155 33.3884 83.7476 33.0383C82.7082 32.6593 82.0828 32.3733 81.8689 32.1785C81.6554 31.9841 81.5488 31.6972 81.5488 31.3183C81.5488 31.0168 81.6907 30.7656 81.9763 30.5643C82.2601 30.3647 82.7246 30.2632 83.3685 30.2632C83.8248 30.2632 84.254 30.3002 84.6568 30.3746C85.0593 30.4499 85.4651 30.5363 85.8723 30.6335V29.0116C85.6782 28.9355 85.3409 28.8503 84.8587 28.754C84.3774 28.6572 83.8352 28.6099 83.2322 28.6099C81.9896 28.6099 81.0162 28.8937 80.311 29.4628C79.6075 30.0314 79.2547 30.7286 79.2547 31.5527C79.2547 32.415 79.4729 33.0968 79.9103 33.5965C80.3463 34.0963 80.9644 34.5075 81.7619 34.8301C82.763 35.2292 83.3707 35.5484 83.5837 35.7901C83.7977 36.0314 83.9046 36.3092 83.9046 36.6215C83.9046 37.1058 83.7563 37.4525 83.4591 37.6619C83.1632 37.8714 82.6211 37.975 81.8339 37.975C81.2737 37.975 80.7048 37.9058 80.1255 37.766C79.5467 37.6271 79.1227 37.4757 78.8523 37.3105V39.1492C79.1986 39.2882 79.6373 39.4026 80.1691 39.4933C80.7004 39.5832 81.3521 39.6292 82.1259 39.6292C83.4776 39.6292 84.5331 39.3574 85.2913 38.8142ZM45.4641 35.9593C45.4641 35.3808 45.3062 34.9253 44.9914 34.5937C44.6761 34.2617 44.1607 34.0956 43.4451 34.0956H42.6278V37.9434H43.5732C44.2556 37.9434 44.7408 37.7743 45.0306 37.4354C45.3192 37.0969 45.4641 36.604 45.4641 35.9593ZM44.8284 31.5128C44.8284 31.0883 44.7149 30.7808 44.4868 30.592C44.2586 30.4032 43.9166 30.3081 43.4611 30.3081H42.6278V32.6737H43.4753C43.9688 32.6737 44.3181 32.5683 44.5217 32.3584C44.7266 32.1481 44.8284 31.8664 44.8284 31.5128ZM47.8665 36.0814C47.8665 37.1675 47.5262 38.007 46.8469 38.5989C46.1667 39.1933 45.2282 39.4896 44.0309 39.4896H40.288V28.764H44.0994C45.1872 28.764 45.9601 28.9541 46.419 29.3339C46.8779 29.7163 47.107 30.2475 47.107 30.9288C47.107 31.5292 46.9655 32.0032 46.6826 32.3511C46.3996 32.6991 45.9662 32.9279 45.3817 33.0363C46.1037 33.1305 46.6985 33.4406 47.1652 33.9645C47.6323 34.4892 47.8665 35.1941 47.8665 36.0814ZM54.1387 36.7426V36.522C54.1387 36.0291 54.0231 35.6544 53.7915 35.3951C53.5595 35.1379 53.217 35.008 52.7633 35.008C52.3376 35.008 52.0003 35.1297 51.7523 35.3736C51.5043 35.6183 51.3801 36.0054 51.3801 36.5366V36.7577C51.3801 37.3125 51.5112 37.682 51.7743 37.8673C52.0365 38.0536 52.3704 38.1452 52.7775 38.1452C53.1273 38.1452 53.4413 38.0316 53.7204 37.8067C53.9994 37.5813 54.1387 37.2278 54.1387 36.7426ZM56.3242 39.4893H54.1957L54.1543 38.4162C53.9783 38.7581 53.6846 39.0372 53.2714 39.2549C52.8582 39.4734 52.3773 39.5813 51.8265 39.5813C50.9199 39.5813 50.2337 39.3551 49.7687 38.9C49.3033 38.445 49.0708 37.7555 49.0708 36.8321V36.6893C49.0708 35.7749 49.3818 35.0704 50.0033 34.5757C50.6248 34.0811 51.4599 33.8325 52.5079 33.8325C52.8258 33.8325 53.1385 33.879 53.4473 33.9701C53.7557 34.0618 53.9813 34.1753 54.1232 34.3121V33.5073C54.1232 33.2278 53.9955 32.9908 53.7393 32.7964C53.4827 32.6002 53.12 32.5039 52.6498 32.5039C52.1469 32.5039 51.6984 32.5598 51.3046 32.6721C50.9112 32.7839 50.5696 32.9241 50.2798 33.091V31.6996C50.6546 31.5482 51.0734 31.4166 51.5366 31.3078C51.999 31.1985 52.5606 31.1435 53.22 31.1435C54.278 31.1435 55.0604 31.3822 55.5664 31.8583C56.071 32.3344 56.3242 33.0966 56.3242 34.143V39.4893ZM63.2085 39.4897H65.4867V33.7529C65.4867 32.8725 65.2909 32.217 64.8997 31.7878C64.5085 31.3581 63.9715 31.1439 63.2896 31.1439C62.6116 31.1439 62.0362 31.2923 61.5648 31.5882C61.0929 31.8845 60.7746 32.2269 60.6081 32.6153L60.5654 31.3142H58.3726V39.4897H60.6513V33.611C60.8259 33.3964 61.0381 33.22 61.2866 33.0824C61.535 32.9443 61.8227 32.8751 62.1496 32.8751C62.4908 32.8751 62.7522 32.9671 62.935 33.1525C63.1166 33.3374 63.2085 33.5366 63.2085 33.7495V39.4897ZM75.1701 39.4896H72.4959L69.8852 36.1584V39.4896H67.6071V28.764H69.8852V34.6311L72.6228 31.3141H74.7206L71.5635 34.9503L75.1701 39.4896ZM97.1316 39.4897H99.4093V33.7529C99.4093 32.8725 99.2135 32.217 98.8232 31.7878C98.432 31.3581 97.895 31.1439 97.2118 31.1439C96.5342 31.1439 95.9597 31.2923 95.4879 31.5882C95.0156 31.8845 94.6973 32.2269 94.5312 32.6153L94.4881 31.3142H92.2957V39.4897H94.5735V33.611C94.749 33.3964 94.9612 33.22 95.2101 33.0824C95.4585 32.9443 95.7467 32.8751 96.0736 32.8751C96.4143 32.8751 96.6757 32.9671 96.8573 33.1525C97.0402 33.3374 97.1316 33.5366 97.1316 33.7495V39.4897ZM107.079 35.4469V35.3252C107.079 34.2203 106.907 33.4659 106.566 33.0628C106.224 32.6594 105.806 32.4573 105.312 32.4573C104.795 32.4573 104.374 32.6736 104.049 33.1046C103.723 33.5372 103.56 34.2783 103.56 35.3252V35.4469C103.56 36.5992 103.718 37.3656 104.033 37.7459C104.35 38.1248 104.775 38.3149 105.312 38.3149C105.797 38.3149 106.211 38.1299 106.56 37.7596C106.905 37.3893 107.079 36.6185 107.079 35.4469ZM109.418 35.6456C109.418 36.9132 109.053 37.902 108.325 38.6117C107.596 39.32 106.594 39.6745 105.322 39.6745C104.058 39.6745 103.054 39.3123 102.307 38.5854C101.562 37.8598 101.189 36.8805 101.189 35.6456V35.1265C101.189 33.9209 101.557 32.9489 102.294 32.2078C103.03 31.468 104.034 31.0981 105.308 31.0981C106.59 31.0981 107.596 31.4697 108.325 32.2155C109.053 32.9605 109.418 33.9312 109.418 35.1265V35.6456ZM115.854 31.5219V32.5528C115.854 32.9137 115.726 33.192 115.468 33.3868C115.21 33.5817 114.892 33.6784 114.51 33.6784H113.623V30.3244H114.381C114.906 30.3244 115.282 30.4217 115.511 30.6169C115.74 30.8118 115.854 31.1133 115.854 31.5219ZM117.499 34.4522C118.056 33.9911 118.335 33.3034 118.335 32.3924V31.5468C118.335 30.8066 118.108 30.1576 117.654 29.6006C117.199 29.0423 116.395 28.764 115.24 28.764H111.205V39.4896H113.623V35.1472H115.087C116.138 35.1472 116.942 34.9158 117.499 34.4522ZM124.287 36.743V36.5224C124.287 36.0295 124.17 35.6549 123.939 35.3955C123.707 35.1383 123.365 35.0084 122.911 35.0084C122.485 35.0084 122.148 35.1301 121.9 35.374C121.652 35.6187 121.529 36.0058 121.529 36.537V36.7581C121.529 37.3129 121.659 37.6824 121.922 37.8678C122.184 38.054 122.518 38.1456 122.925 38.1456C123.275 38.1456 123.59 38.0321 123.868 37.8071C124.148 37.5817 124.287 37.2282 124.287 36.743ZM126.472 39.4897H124.345L124.302 38.4166C124.126 38.7585 123.833 39.0377 123.419 39.2553C123.006 39.4738 122.524 39.5817 121.975 39.5817C121.068 39.5817 120.382 39.3555 119.916 38.9005C119.451 38.4454 119.22 37.7559 119.22 36.8325V36.6897C119.22 35.7753 119.529 35.0708 120.151 34.5762C120.772 34.0815 121.607 33.8329 122.655 33.8329C122.974 33.8329 123.287 33.8794 123.595 33.9706C123.903 34.0622 124.128 34.1757 124.272 34.3125V33.5078C124.272 33.2282 124.143 32.9912 123.887 32.7968C123.631 32.6007 123.268 32.5043 122.798 32.5043C122.295 32.5043 121.846 32.5602 121.453 32.6725C121.059 32.7843 120.717 32.9245 120.428 33.0914V31.7C120.803 31.5486 121.222 31.417 121.684 31.3082C122.146 31.1989 122.709 31.1439 123.367 31.1439C124.427 31.1439 125.208 31.3826 125.714 31.8587C126.219 32.3349 126.472 33.097 126.472 34.1435V39.4897ZM133.915 39.4237C134.361 39.256 134.629 39.1334 134.719 39.0568V37.4955C134.563 37.634 134.275 37.7729 133.853 37.9093C133.431 38.0456 132.996 38.1145 132.551 38.1145C131.888 38.1145 131.406 37.9127 131.108 37.5084C130.809 37.1059 130.66 36.4203 130.66 35.4512V35.3024C130.66 34.4392 130.843 33.7596 131.21 33.2628C131.578 32.7674 132.107 32.5196 132.8 32.5196C133.199 32.5196 133.567 32.5811 133.905 32.7063C134.244 32.831 134.515 32.9859 134.719 33.1682V31.7162C134.563 31.5661 134.276 31.425 133.858 31.2951C133.44 31.1622 132.972 31.0981 132.453 31.0981C131.143 31.0981 130.104 31.4723 129.334 32.2224C128.564 32.9721 128.18 33.9682 128.18 35.2117V35.5605C128.18 36.9325 128.572 37.9605 129.355 38.6461C130.139 39.3321 131.194 39.6745 132.519 39.6745C133.003 39.6745 133.469 39.5906 133.915 39.4237ZM133.805 6.41254H122.362V4.57727H133.805V6.41254ZM121.685 11.4753H129.428V20.6943C129.428 20.9893 129.364 21.1932 129.236 21.3059C128.813 21.6564 128.129 21.7773 127.185 21.6637C126.127 21.4822 125.048 21.2293 123.949 20.9054L123.905 22.8254C126.994 23.7248 129.124 23.7958 130.295 23.0362C130.929 22.6143 131.253 21.9949 131.268 21.1799V11.4753H134.652V9.64006H121.685V11.4753ZM120.119 4.26028L118.405 3.60608C117.601 5.80049 116.346 7.66415 114.64 9.19705L116.206 10.2728C117.686 8.9648 118.99 6.96049 120.119 4.26028ZM115.994 16.4753C116.431 16.0955 116.903 15.6457 117.411 15.1252V23.5424H119.253V12.7416C119.773 11.9252 120.317 10.948 120.881 9.80867L119.209 9.04953C118.18 11.4547 116.608 13.5351 114.492 15.2934L115.994 16.4753Z" fill="#231916"/>
<path fill-rule="evenodd" clip-rule="evenodd" d="M30.3655 15.1406C30.3655 23.5024 23.5689 30.2809 15.1834 30.2809C6.79788 30.2809 0 23.5024 0 15.1406C0 6.77763 6.79788 0 15.1834 0C23.5689 0 30.3655 6.77763 30.3655 15.1406Z" fill="#E62511"/>
<path fill-rule="evenodd" clip-rule="evenodd" d="M20.6655 9.25247H16.87V22.71H13.4958V12.6171H4.21748V9.25239H16.8691V5.46753H20.6655V9.25247ZM3.37382 19.3455V15.9816H10.1212V22.7102H6.74752V19.3455H3.37382ZM20.2433 22.7101V12.6172H27.8344V15.9811H23.617V22.7101H20.2433Z" fill="#FEFEFE"/>
</svg>
