<svg width="72" height="72" viewBox="0 0 72 72" fill="none" xmlns="http://www.w3.org/2000/svg">
<rect x="12" y="12" width="48" height="48" rx="24" fill="white"/>
<path fill-rule="evenodd" clip-rule="evenodd" d="M51.4156 21.7849L19.6934 32.9747L29.358 38.2108L51.4156 21.7849Z" fill="url(#paint0_linear_3125_33090)"/>
<path fill-rule="evenodd" clip-rule="evenodd" d="M29.3579 38.2108L32.0851 47.0551L33.2873 40.2371L51.4155 21.7849L29.3579 38.2108Z" fill="url(#paint1_linear_3125_33090)"/>
<path fill-rule="evenodd" clip-rule="evenodd" d="M51.4156 21.7849L33.2749 40.252L46.6336 46.9911L51.4156 21.7849Z" fill="url(#paint2_linear_3125_33090)"/>
<path fill-rule="evenodd" clip-rule="evenodd" d="M33.2874 40.2371L32.0756 47.0534L38.1586 42.6344L33.2874 40.2371Z" fill="url(#paint3_linear_3125_33090)"/>
<path d="M26.6487 40.4275C26.9435 40.0762 27.468 40.0309 27.8202 40.3264C28.1332 40.5891 28.2048 41.0326 28.0098 41.3747L27.9241 41.4977L24.2491 45.2243C23.9543 45.5757 23.4298 45.6209 23.0776 45.3254C22.7646 45.0627 22.693 44.6192 22.8881 44.2771L22.9737 44.1541L26.6487 40.4275Z" fill="#DF1F1F"/>
<path d="M37.4542 46.3888C37.749 46.0374 38.2734 45.9922 38.6256 46.2877C38.9387 46.5504 39.0102 46.9939 38.8152 47.336L38.7295 47.4589L35.713 50.3983C35.4182 50.7496 34.8937 50.7948 34.5415 50.4993C34.2284 50.2366 34.1569 49.7931 34.3519 49.4511L34.4376 49.3281L37.4542 46.3888Z" fill="#DF1F1F"/>
<path d="M28.9428 46.8898C29.2376 46.5385 29.7621 46.4933 30.1143 46.7888C30.4274 47.0515 30.4989 47.495 30.3039 47.8371L30.2182 47.96L27.9347 50.3677C27.6399 50.719 27.1154 50.7643 26.7632 50.4687C26.4501 50.2061 26.3786 49.7625 26.5736 49.4205L26.6593 49.2975L28.9428 46.8898Z" fill="#DF1F1F"/>
<rect x="6" y="6" width="60" height="60" rx="30" stroke="white" stroke-opacity="0.2" stroke-width="12"/>
<defs>
<linearGradient id="paint0_linear_3125_33090" x1="18.7952" y1="24.0384" x2="17.455" y2="36.855" gradientUnits="userSpaceOnUse">
<stop stop-color="#FFA1A1"/>
<stop offset="1" stop-color="#D80000"/>
</linearGradient>
<linearGradient id="paint1_linear_3125_33090" x1="29.1028" y1="32.6362" x2="28.0569" y2="46.1034" gradientUnits="userSpaceOnUse">
<stop stop-color="#BF2727"/>
<stop offset="1" stop-color="#752626"/>
</linearGradient>
<linearGradient id="paint2_linear_3125_33090" x1="34.0241" y1="28.9832" x2="34.0915" y2="45.2842" gradientUnits="userSpaceOnUse">
<stop stop-color="#FFA1A1"/>
<stop offset="1" stop-color="#D80000"/>
</linearGradient>
<linearGradient id="paint3_linear_3125_33090" x1="33.2778" y1="40.2354" x2="32.0756" y2="47.0534" gradientUnits="userSpaceOnUse">
<stop stop-color="#972626"/>
<stop offset="1" stop-color="#DD1515"/>
</linearGradient>
</defs>
</svg>
