<svg xmlns="http://www.w3.org/2000/svg" viewBox="0 0 606.09 389.34"><defs><style>.cls-1{fill:#dcdbdb;}.cls-2{fill:#999a99;}.cls-3{fill:#999998;}.cls-4{fill:#f4f4f4;}.cls-5{fill:#686868;}.cls-6{fill:#fff;}</style></defs><title>addidcard</title><g id="圖層_2" data-name="圖層 2"><g id="Artwork"><path class="cls-1" d="M540.33,247.83a75.31,75.31,0,0,1,30.81,6.57V22.68A22.75,22.75,0,0,0,548.46,0H22.68A22.74,22.74,0,0,0,0,22.68V328.5a22.75,22.75,0,0,0,22.68,22.68H469.81a75.7,75.7,0,0,1,70.52-103.35Z"/><path class="cls-2" d="M571.14,265.49a65.76,65.76,0,1,0,35,58.09A65.49,65.49,0,0,0,571.14,265.49Z"/><polygon class="cls-3" points="252.01 87.73 307.62 87.93 307.66 72 252.04 71.81 252.01 87.73"/><rect class="cls-3" x="169.44" y="32.48" width="15.92" height="94.31" transform="matrix(0, -1, 1, 0, 97.35, 256.85)"/><rect class="cls-3" x="65.77" y="46.16" width="15.92" height="66.53" transform="translate(-5.89 152.94) rotate(-89.85)"/><rect class="cls-3" x="240.71" y="69.83" width="15.92" height="117.91" transform="translate(119.31 377.16) rotate(-89.87)"/><rect class="cls-3" x="95.74" y="65.29" width="15.92" height="126.47" transform="translate(-25.01 231.98) rotate(-89.89)"/><polygon class="cls-3" points="40.45 184.85 166.42 184.55 166.45 168.63 40.48 168.93 40.45 184.85"/><rect class="cls-4" x="377.45" y="39.59" width="152.19" height="186.69" transform="translate(907.09 265.86) rotate(-180)"/><path class="cls-5" d="M402.45,192.93c2.94-31.73,43.41-48.05,34.21-54.4s-18-12.85-18-40.35c0-35.33,36.05-35.33,36.05-35.33s36.05,0,36.05,35.33c0,28.25-8.83,34-18,40.35s31.27,22.67,34.22,54.4c.92,10,2.07,21.83,3.21,33.35H399.24C400.37,214.76,401.52,202.93,402.45,192.93Z"/><rect class="cls-6" x="531" y="288.75" width="18.67" height="69.67"/><rect class="cls-6" x="531" y="288.75" width="18.67" height="69.67" transform="translate(216.75 863.92) rotate(-90)"/></g></g></svg>