<svg xmlns="http://www.w3.org/2000/svg" viewBox="0 0 469.33 362.67"><defs><style>.cls-1{fill:none;}</style></defs><title>pick-hand</title><g id="圖層_2" data-name="圖層 2"><g id="Capa_1" data-name="Capa 1"><path class="cls-1" d="M423.06,147.37,343.19,59.58c-7.23-7.16-19.52-7.19-27.12.37a19.41,19.41,0,0,0-.1,27.58l.92.92A10.67,10.67,0,0,1,302,103.74s0,0,0,0h0l0,0,0,0,0,0s0,0,0,0L279.53,81.28A19.5,19.5,0,0,0,252,108.86l22.25,22.25a10.67,10.67,0,1,1-15.06,15.11l-43.61-43.61A19.51,19.51,0,0,0,188,130.2l43.58,43.58a10.67,10.67,0,1,1-15.06,15.11L109.74,82.15a19.51,19.51,0,0,0-27.59,27.59L242.22,269.8a10.66,10.66,0,0,1-5.89,18.07l-107,16.81a26.4,26.4,0,0,0-22.67,26,10.67,10.67,0,0,0,10.66,10.66H318.49a95.39,95.39,0,0,0,67.88-28.11l33.56-33.56a95.88,95.88,0,0,0,3.13-132.29Z"/><path d="M438.83,133,358.61,44.86a40.84,40.84,0,0,0-57.75.13,40,40,0,0,0-10.32,17.64,40.86,40.86,0,0,0-64,21.32,40.89,40.89,0,0,0-53.66,3.71,40.43,40.43,0,0,0-10.24,17.21l-37.8-37.8a40.84,40.84,0,0,0-57.75,57.75L212.31,270.06l-86.14,13.52a47.8,47.8,0,0,0-40.84,47.09,32,32,0,0,0,32,32H318.49a116.57,116.57,0,0,0,83-34.37L435,294.74A117.2,117.2,0,0,0,438.83,133Zm-18.9,146.65-33.56,33.56a95.39,95.39,0,0,1-67.88,28.11H117.33a10.67,10.67,0,0,1-10.66-10.66,26.4,26.4,0,0,1,22.67-26l107-16.81a10.66,10.66,0,0,0,5.89-18.07L82.15,109.74a19.51,19.51,0,0,1,27.59-27.59L216.47,188.89a10.67,10.67,0,1,0,15.06-15.11L188,130.2a19.51,19.51,0,0,1,27.58-27.59l43.61,43.61a10.67,10.67,0,0,0,15.06-15.11L252,108.86a19.5,19.5,0,0,1,27.58-27.58l22.36,22.36s0,0,0,0l0,0,0,0,0,0h0s0,0,0,0a10.67,10.67,0,0,0,14.87-15.29l-.92-.92a19.41,19.41,0,0,1,.1-27.58c7.6-7.56,19.89-7.53,27.12-.37l79.87,87.79a95.88,95.88,0,0,1-3.13,132.29Z"/><path d="M65.39,164A74.57,74.57,0,1,1,164,65.39a10.66,10.66,0,1,0,19.43-8.79A95.91,95.91,0,1,0,56.6,183.4,10.67,10.67,0,0,0,65.39,164Z"/></g></g></svg>