<?xml version="1.0" encoding="utf-8"?>
<!-- Generator: Adobe Illustrator 22.0.0, SVG Export Plug-In . SVG Version: 6.00 Build 0)  -->
<svg version="1.1" id="圖層_1" xmlns="http://www.w3.org/2000/svg" xmlns:xlink="http://www.w3.org/1999/xlink" x="0px" y="0px"
	 viewBox="0 0 16 16" style="enable-background:new 0 0 16 16;" xml:space="preserve">
<style type="text/css">
	.st0{fill:#5F5F5F;}
</style>
<title></title>
<title>Layer 1</title>
<g>
	<path class="st0" d="M8,0C3.6,0,0,3.6,0,8s3.6,8,8,8s8-3.6,8-8S12.4,0,8,0z M3.8,12.4c-0.2,0-0.3-0.1-0.3-0.3L4.1,10l1.9,1.9
		L3.8,12.4z M6.4,11.4L4.6,9.5l4.7-4.7l1.9,1.9L6.4,11.4z M12.5,5.3l-0.9,0.9L9.7,4.4l0.8-0.8c0.3-0.3,0.8-0.3,1.2,0l0.8,0.8
		C12.8,4.6,12.8,5,12.5,5.3z"/>
</g>
</svg>
