<svg xmlns="http://www.w3.org/2000/svg" viewBox="0 0 403.2 140.16"><defs><style>.cls-1{fill:#2fabf7;}.cls-2{fill:#228fe0;}.cls-3{fill:#0571c1;}</style></defs><title>icon-americanexpress</title><g id="圖層_2" data-name="圖層 2"><g id="圖層_1-2" data-name="圖層 1"><path class="cls-1" d="M34.56,34.56H48.64l-7-17.92Z"/><path class="cls-2" d="M209.28,19.2c-1.28-.64-3.2-.64-5.12-.64h-12.8V28.8h12.8c1.92,0,3.84,0,5.12-.64s1.92-2.56,1.92-4.48a3.56,3.56,0,0,0-1.92-4.48Z"/><path class="cls-3" d="M346.24,0V7.68L342.4,0H312.32V7.68L308.48,0h-41A39,39,0,0,0,249.6,3.84V0H220.8V3.84c-3.2-2.56-7-3.84-12.16-3.84h-103l-7,16-7-16H58.88V7.68L55,0H27.52L14.72,30.08,0,63.36H32.64l3.84-10.24h9l3.84,10.24H86.4V55.68l3.2,7.68h18.56l3.2-7.68v7.68h89V46.72h1.28c1.28,0,1.28,0,1.28,1.92V62.72H249V58.88a38.34,38.34,0,0,0,17.28,3.84h19.2l3.84-10.24h9l3.84,10.24H339.2v-9.6l5.76,9.6H375V0ZM129.92,53.76H119V18.56l-15.36,35.2h-9.6L78.72,18.56v35.2H57l-4.48-9.6H30.72L26.88,54.4H14.72L33.92,9h16L67.84,51.84V9H85.12L99.2,39.68,112,9h17.92Zm43.52-35.2h-25v8.32H172.8v9H148.48v9h25v9.6H137.6V9h35.84Zm48,18.56a16,16,0,0,1,1.92,8.32v9H212.48V48.64c0-2.56,0-6.4-1.92-9-1.92-1.92-3.84-1.92-7.68-1.92H191.36V54.4H180.48V9H204.8c5.76,0,9.6,0,12.8,1.92s5.12,5.12,5.12,10.24A12.74,12.74,0,0,1,215,33.28a12.17,12.17,0,0,1,6.4,3.84Zm19.2,16.64H229.76V8.32h10.88Zm126.08,0H351.36L330.88,19.84V53.76H309.12l-3.84-9.6h-22.4L279,54.4H266.88c-5.12,0-11.52-1.28-15.36-5.12s-5.76-9-5.76-17.28c0-6.4,1.28-12.8,5.76-17.92,3.2-3.84,9-5.12,16-5.12h10.24v9.6H267.52c-3.84,0-5.76.64-8.32,2.56C257.28,23,256,26.88,256,31.36c0,5.12.64,8.32,3.2,10.88,1.92,1.92,4.48,2.56,7.68,2.56h4.48L286.08,9.6h16L320,52.48V9.6h16L354.56,41V9.6h10.88V53.76Z"/><path class="cls-2" d="M286.72,34.56h14.72l-7-17.92Z"/><path class="cls-2" d="M177.92,126.72V90.24l-16.64,17.92Z"/><path class="cls-1" d="M109.44,94.72V103h23.68v9H109.44v9.6h26.24l12.16-13.44L136.32,94.72Z"/><path class="cls-2" d="M202.24,94.72H188.8v11.52h14.08c3.84,0,6.4-1.92,6.4-5.76-.64-3.84-3.2-5.76-7-5.76Z"/><path class="cls-3" d="M400,105.6V76.8H373.12q-8.64,0-13.44,3.84V76.8H330.24c-4.48,0-10.24,1.28-12.8,3.84V76.8H265.6v3.84c-3.84-3.2-10.88-3.84-14.08-3.84H217v3.84c-3.2-3.2-10.88-3.84-14.72-3.84h-38.4l-9,9.6-8.32-9.6H89v62.72h56.32l9-9.6,8.32,9.6h34.56V124.8h4.48c4.48,0,10.24,0,14.72-1.92v17.28h28.8V123.52h1.28c1.92,0,1.92,0,1.92,1.92v14.72h87c5.76,0,11.52-1.28,14.72-3.84v3.84H377.6c5.76,0,11.52-.64,15.36-3.2,6.4-3.84,10.24-10.88,10.24-19.2A24.51,24.51,0,0,0,400,105.6ZM201.6,115.84H188.8V131.2H168.32l-12.8-14.72L142.08,131.2H99.84V85.76h42.88l12.8,14.72L169,85.76h33.92c8.32,0,17.92,2.56,17.92,14.72-.64,12.8-9.6,15.36-19.2,15.36Zm64-2.56c1.28,1.92,1.92,4.48,1.92,8.32v9H256.64V124.8c0-2.56,0-7-1.92-9-1.28-1.92-3.84-1.92-7.68-1.92H235.52v16.64H224.64V85.12H249c5.12,0,9.6,0,12.8,1.92a11.32,11.32,0,0,1,5.76,10.24,12.74,12.74,0,0,1-7.68,12.16q4.8,1.92,5.76,3.84Zm44.16-18.56h-25V103h24.32v9H284.8v9h25v9.6H273.92V85.12h35.84Zm26.88,35.84H316.16V121h20.48c1.92,0,3.2,0,4.48-1.28a4.64,4.64,0,0,0,0-6.4,5.41,5.41,0,0,0-3.84-1.28c-10.24-.64-22.4,0-22.4-14.08,0-6.4,3.84-13.44,15.36-13.44h21.12V95.36H331.52c-1.92,0-3.2,0-4.48.64s-1.28,1.92-1.28,3.2c0,1.92,1.28,2.56,2.56,3.2a8.12,8.12,0,0,0,3.84.64h5.76c5.76,0,9.6,1.28,12.16,3.84,1.92,1.92,3.2,5.12,3.2,9.6,0,9.6-5.76,14.08-16.64,14.08Zm55-4.48c-2.56,2.56-7,4.48-13.44,4.48H357.76V121h20.48c1.92,0,3.2,0,4.48-1.28a4.64,4.64,0,0,0,0-6.4,5.41,5.41,0,0,0-3.84-1.28c-10.24-.64-22.4,0-22.4-14.08,0-6.4,3.84-13.44,15.36-13.44H393V95.36h-19.2c-1.92,0-3.2,0-4.48.64S368,97.92,368,99.2c0,1.92.64,2.56,2.56,3.2a8.12,8.12,0,0,0,3.84.64h5.76c5.76,0,9.6,1.28,12.16,3.84a.63.63,0,0,1,.64.64,14.69,14.69,0,0,1,2.56,9,13,13,0,0,1-3.84,9.6Z"/><path class="cls-2" d="M254.08,96c-1.28-.64-3.2-.64-5.12-.64h-12.8V105.6H249c1.92,0,3.84,0,5.12-.64s1.92-2.56,1.92-4.48A3.56,3.56,0,0,0,254.08,96Z"/><path class="cls-2" d="M209.28,19.2c-1.28-.64-3.2-.64-5.12-.64h-12.8V28.8h12.8c1.92,0,3.84,0,5.12-.64s1.92-2.56,1.92-4.48a3.56,3.56,0,0,0-1.92-4.48Z"/><path class="cls-2" d="M286.72,34.56h14.72l-7-17.92Z"/><path class="cls-2" d="M177.92,126.72V90.24l-16.64,17.92Z"/><path class="cls-2" d="M202.24,94.72H188.8v11.52h14.08c3.84,0,6.4-1.92,6.4-5.76-.64-3.84-3.2-5.76-7-5.76Z"/><path class="cls-2" d="M254.08,96c-1.28-.64-3.2-.64-5.12-.64h-12.8V105.6H249c1.92,0,3.84,0,5.12-.64s1.92-2.56,1.92-4.48A3.56,3.56,0,0,0,254.08,96Z"/><path class="cls-1" d="M197.76,129.28l-9-9.6v10.88H167.68l-12.8-14.72L140.8,130.56H98.56V85.76h42.88l13.44,14.72,6.4-7.68-16-16H89v62.72h56.32l9.6-9.6,8.32,9.6h34.56Z"/><path class="cls-1" d="M131.2,62.72l-8.32-9H119V49.92l-9.6-9.6L103,53.76h-9L78.72,18.56v35.2H57l-4.48-9.6H30.72l-4.48,9.6H14.72L33.92,9h16L67.84,51.84V9h9.6l-9-9h-9.6V7.68L55.68,0H27.52L14.72,30.08,0,62.72H33.28l3.84-9.6h9l4.48,9.6H86.4V55l3.2,7.68h18.56l3.2-7.68v7.68Z"/><path class="cls-1" d="M101.76,33.28,91.52,23,99.2,39.68Z"/><path class="cls-2" d="M393,136.32A23.41,23.41,0,0,0,403.2,119l-9-9a18.93,18.93,0,0,1,1.28,6.4,13,13,0,0,1-3.84,9.6c-2.56,2.56-7,4.48-13.44,4.48H357.76V121h20.48c1.92,0,3.2,0,4.48-1.28a4.64,4.64,0,0,0,0-6.4,5.41,5.41,0,0,0-3.84-1.28c-10.24-.64-22.4,0-22.4-14.08,0-6.4,3.84-12.16,13.44-13.44l-7-7c-1.28.64-1.92,1.28-2.56,1.28V74.88H330.88c-4.48,0-10.24,1.28-12.8,3.84V74.88H265.6v3.84c-3.84-3.2-10.88-3.84-14.08-3.84H217v3.84c-3.2-3.2-10.88-3.84-14.72-3.84h-38.4l-9,9.6-8.32-9.6h-7l19.2,19.2,9.6-10.24h33.92c8.32,0,17.92,2.56,17.92,14.72,0,12.8-9,15.36-18.56,15.36H188.8v9.6l9.6,9.6v-9.6h3.2c4.48,0,10.24,0,14.72-1.92v17.28h28.8V122.24h1.28c1.92,0,1.92,0,1.92,1.92v14.72h87c5.76,0,11.52-1.28,14.72-3.84v3.84H377.6c5.12.64,10.88,0,15.36-2.56Zm-127.36-23c1.28,1.92,1.92,4.48,1.92,8.32v9H256.64V124.8c0-2.56,0-7-1.92-9-1.28-1.92-3.84-1.92-7.68-1.92H235.52v16.64H224.64V85.12H249c5.12,0,9.6,0,12.8,1.92a11.32,11.32,0,0,1,5.76,10.24,12.74,12.74,0,0,1-7.68,12.16q4.8,1.92,5.76,3.84Zm44.16-18.56h-25V103h24.32v9H284.8v9h25v9.6H273.92V85.12h35.84Zm26.88,35.84H316.16V121h20.48c1.92,0,3.2,0,4.48-1.28a4.64,4.64,0,0,0,0-6.4,5.41,5.41,0,0,0-3.84-1.28c-10.24-.64-22.4,0-22.4-14.08,0-6.4,3.84-13.44,15.36-13.44h21.12V95.36H331.52c-1.92,0-3.2,0-4.48.64s-1.28,1.92-1.28,3.2c0,1.92,1.28,2.56,2.56,3.2a8.12,8.12,0,0,0,3.84.64h5.76c5.76,0,9.6,1.28,12.16,3.84,1.92,1.92,3.2,5.12,3.2,9.6,0,9.6-5.76,14.08-16.64,14.08Z"/><path class="cls-2" d="M367.36,99.2c0,1.92.64,2.56,2.56,3.2a8.12,8.12,0,0,0,3.84.64h5.76a18.59,18.59,0,0,1,9,1.92l-9.6-9.6h-5.76c-1.92,0-3.2,0-4.48.64a4.89,4.89,0,0,0-1.28,3.2Z"/><path class="cls-2" d="M345,60.8l1.28,1.92h.64Z"/><path class="cls-2" d="M309.76,25.6l10.88,26.24V36.48Z"/><path class="cls-2" d="M200.32,46.72h1.28c1.28,0,1.28,0,1.28,1.92V62.72H249V58.88a38.34,38.34,0,0,0,17.28,3.84h19.2l3.84-10.24h9l3.84,10.24H339.2v-6.4l-9-9v7H308.48l-3.2-10.24h-22.4L279,54.4H266.88c-5.12,0-11.52-1.28-15.36-5.12s-5.76-9-5.76-17.28c0-6.4,1.28-12.8,5.76-17.92,3.2-3.84,9-5.12,16-5.12h10.24v9.6H267.52c-3.84,0-5.76.64-8.32,2.56C257.28,23,256,26.88,256,31.36c0,5.12.64,8.32,3.2,10.88,1.92,1.92,4.48,2.56,7.68,2.56h4.48L286.08,9.6h6.4l-9-9H266.88A39,39,0,0,0,249,4.48V.64H220.8V4.48c-3.2-2.56-7-3.84-12.16-3.84h-103l-7,16-7-16H63.36l9,9h12.8L96,33.28l3.84,3.84L111.36,9h17.92V54.4H118.4V19.2L107.52,44.8l18.56,18.56h73.6ZM229.76,9h10.88V54.4H229.76Zm-56.32,9.6h-25v8.32H172.8v9H148.48v9h25v9.6H137.6V9h35.84Zm17.92,35.2H180.48V8.32H204.8c5.76,0,9.6,0,12.8,1.92s5.12,5.12,5.12,10.24A12.74,12.74,0,0,1,215,32.64a8.38,8.38,0,0,1,5.12,3.84,16,16,0,0,1,1.92,8.32v9H211.2V48c0-2.56,0-6.4-1.92-9-.64-1.28-2.56-1.28-6.4-1.28H191.36Z"/></g></g></svg>