<svg xmlns="http://www.w3.org/2000/svg" width="36" height="36" viewBox="0 0 36 36">
  <defs>
    <style>
.cls-1{fill:#999;}.cls-2{fill:none;}
</style>
  </defs>
  <g id="01" data-name="011">
    <g id="02" data-name="021">
      <path class="cls-1" d="M31.41,7.27H24.7a6.7,6.7,0,0,0-13.4,0H4.59a1.68,1.68,0,0,0,0,3.36h.67V31.07a4.36,4.36,0,0,0,4.36,4.36H26.38a4.36,4.36,0,0,0,4.36-4.36V10.63h.67a1.68,1.68,0,1,0,0-3.36ZM18,3.92a3.35,3.35,0,0,1,3.35,3.35h-6.7A3.35,3.35,0,0,1,18,3.92Zm9.39,27.15a1,1,0,0,1-1,1H9.62a1,1,0,0,1-1-1V10.63H27.39Z"/>
      <path class="cls-1" d="M14.31,26.38a1.68,1.68,0,0,1-1.67-1.68V18A1.68,1.68,0,1,1,16,18v6.7A1.68,1.68,0,0,1,14.31,26.38Z"/>
      <path class="cls-1" d="M21.69,26.38A1.68,1.68,0,0,1,20,24.7V18a1.68,1.68,0,1,1,3.35,0v6.7A1.68,1.68,0,0,1,21.69,26.38Z"/>
      <rect class="cls-2" width="36" height="36"/>
    </g>
  </g>
</svg>
