<svg width="108" height="25" viewBox="0 0 108 25" fill="none" xmlns="http://www.w3.org/2000/svg">
<path d="M33.1 10.7H39.05L39.5 11.3C39.1 14 37.15 16.5 33.65 18.75L32.5 17.45C33.8 16.75 34.85 16.1 35.55 15.5C36.15 15 36.7 14.35 37.25 13.6C37.6 13.05 37.85 12.65 37.9 12.45C37.95 12.35 37.95 12.3 37.9 12.25C37.8 12.2 37.7 12.15 37.55 12.15H33.2V10.7H33.1ZM42 12.5V18.15C42 18.85 41.75 19.35 41.3 19.75C40.95 20.05 40.35 20.2 39.55 20.2C38.6 20.2 37.7 20.1 36.8 19.85L36.7 18.2C38.45 18.7 39.55 18.8 40.05 18.55C40.35 18.3 40.5 18 40.5 17.55V9.25005C40.5 9.10005 40.4 9.00005 40.25 9.00005H33.55V7.50005H41.5C41.85 7.50005 42 7.70005 41.95 8.00005V8.60005C42.7 10.8 43.5 12.5 44.3 13.7C45.3 15.15 46.8 16.65 48.75 18.1L47.45 19.1C45.05 17.2 43.2 14.95 42 12.5ZM35.45 5.80005L35.65 4.30005C36.5 4.35005 37.95 4.50005 40 4.75005C42 4.95005 43.8 5.25005 45.35 5.60005L45.05 7.10005C42.1 6.40005 38.9 5.95005 35.45 5.80005ZM47.6 7.30005L48.65 8.35005C47.75 9.45005 46.6 10.6 45.1 11.75L44.1 10.65C45.65 9.40005 46.85 8.25005 47.6 7.30005Z" fill="black"/>
<path d="M56.8998 18.8999C56.8498 18.7499 56.7498 18.5999 56.6998 18.4499C56.5498 18.1999 56.4498 17.9499 56.3498 17.7499H54.1998C54.0998 17.7499 54.0498 17.6999 54.0498 17.5999V14.7999C54.0498 14.6999 54.0998 14.6499 54.1998 14.6499H66.6498C66.7498 14.6499 66.7998 14.6999 66.7998 14.7999V17.5999C66.7998 17.6999 66.7498 17.7499 66.6498 17.7499H64.3998C64.2998 17.9499 64.1998 18.2499 64.0498 18.5499C63.9998 18.6499 63.9498 18.7999 63.8998 18.8999H68.4998V20.0999H52.2998V18.8999H56.8998ZM52.6998 12.8499H68.1498V13.9999H52.6998V12.8499ZM63.2998 10.0499H61.6998V8.9999H63.2998V8.1499H61.6998V7.0999H63.2998V6.1999H61.6998V5.1499H63.2998V4.1499H64.4998V5.1499H65.8998V6.1999H64.4998V7.0999H65.8498V8.1499H64.4998V8.9999H65.8498V10.0499H64.4998V10.8999H66.3498C66.4998 10.8999 66.5498 10.8499 66.5498 10.6999V4.4499H67.8998V11.4999C67.8998 11.8499 67.6998 12.0499 67.3498 12.0499H53.4998C53.1498 12.0499 52.9498 11.8499 52.9498 11.4999V4.4499H54.2998V10.6999C54.2998 10.8499 54.3498 10.8999 54.4998 10.8999H56.3498V10.0499H54.8498V8.9999H56.3498V8.0999H54.8998V7.0499H56.3498V6.1999H54.8498V5.1499H56.3498V4.1999H57.5498V5.0999H58.8998V6.1499H57.5498V6.9999H58.8998V8.0499H57.5498V8.9999H58.9498V10.0499H57.5498V10.8999H59.6498V4.1999H60.9998V10.8999H63.2998V10.0499ZM65.5498 15.7999H55.2998C55.2498 15.7999 55.2498 15.7999 55.2498 15.8499V16.5499C55.2498 16.5999 55.2498 16.5999 55.2998 16.5999H65.5498C65.5998 16.5999 65.5998 16.5499 65.5998 16.5499V15.8499C65.5998 15.7999 65.5998 15.7999 65.5498 15.7999ZM58.3498 18.8999H62.4498C62.6498 18.4999 62.8498 18.1499 62.9998 17.7499H57.7998C57.8998 17.9999 58.0998 18.3499 58.3498 18.8999Z" fill="black"/>
<path d="M76.3 5.44998C75.65 6.34998 74.6 7.24998 73.25 8.24998L72 7.39998C73.9 6.24998 75.1 5.14998 75.7 4.09998H77.05C77 4.19998 77 4.29998 76.95 4.39998L77 4.34998C77.75 5.09998 78.55 5.74998 79.4 6.39998L78.3 7.39998C77.5 6.74998 76.85 6.09998 76.3 5.44998ZM72.15 14.15L73.45 13.75C73.8 14.65 74.1 15.7 74.35 17L73.05 17.3C72.75 15.95 72.45 14.9 72.15 14.15ZM75 18.1V12.95H72.4V11.6H75V9.79998H73.15V8.49998H78.25V9.84998H76.4V11.65H78.8V13H76.4V17.85C77.5 17.55 78.2 17.35 78.55 17.25L78.85 18.6C76.3 19.3 74.2 19.75 72.65 19.95L72.45 18.6C73.2 18.45 74.05 18.3 75 18.1ZM77.6 13.75L78.8 14.15C78.6 14.95 78.3 15.8 78 16.6L76.85 16.1C77.2 15.25 77.5 14.45 77.6 13.75ZM84.6 15.35C85.65 14.5 86.5 13.8 87.05 13.15L87.95 14.15C87.25 14.9 86.35 15.7 85.25 16.5C86.1 17.55 87.1 18.45 88.3 19.25L87.05 20.25C85.8 19.3 85 18.55 84.65 18.1C83.35 16.6 82.7 14.8 82.55 12.65H81V18.4C81.95 18.1 82.8 17.8 83.45 17.55L83.9 18.9C82.55 19.5 80.85 20 78.85 20.45L78.45 19.1C78.85 19 79.2 18.9 79.6 18.85V4.99998C79.6 4.74998 79.75 4.59998 80 4.59998H86.75C87.05 4.59998 87.15 4.74998 87.15 4.99998V12.15C87.15 12.45 87 12.6 86.7 12.6H83.9C84.1 13.7 84.3 14.6 84.6 15.35ZM81.1 7.94998H85.85V6.29998C85.85 6.09998 85.75 5.99998 85.5 5.99998H81.4C81.15 5.99998 81.05 6.09998 81.05 6.34998V7.94998H81.1ZM85.85 9.24998H81.1V11.25H85.5C85.75 11.25 85.85 11.15 85.85 10.9V9.24998Z" fill="black"/>
<path d="M94.1996 13.45C93.7996 13.85 93.3996 14.25 93.0496 14.55L91.8496 13.6C93.5496 12.2 94.7996 10.5 95.6496 8.59995L96.9996 9.19995C96.5496 10.1 96.0996 10.9 95.6996 11.55V20.2H94.2496V13.45H94.1996ZM94.9996 4.19995L96.3496 4.74995C95.4496 6.89995 94.3996 8.54995 93.1996 9.59995L91.9496 8.74995C93.3496 7.49995 94.3496 5.99995 94.9996 4.19995ZM103.8 10.55H97.5996V9.09995H108V10.55H105.3V18.35C105.3 19 105.05 19.5 104.5 19.85C103.55 20.45 101.85 20.4 99.3996 19.7L99.4496 18.15C100.35 18.4 101.2 18.6 102.05 18.75C102.8 18.85 103.35 18.75 103.7 18.45C103.8 18.35 103.85 18.2 103.85 17.95V10.55H103.8ZM98.1496 4.99995H107.3V6.44995H98.1496V4.99995Z" fill="black"/>
<path d="M24.3 12.15C24.3 18.85 18.85 24.3 12.15 24.3C5.45 24.3 0 18.9 0 12.15C0 5.45 5.45 0 12.15 0C18.9 0 24.3 5.45 24.3 12.15Z" fill="#E72410"/>
<path d="M16.55 4.40002H13.5V7.45002H16.55V4.40002Z" fill="white"/>
<path d="M2.7002 12.8501V15.5501H5.4002V18.2501H8.1002V12.8501H2.7002Z" fill="white"/>
<path d="M3.40039 7.44995V10.15H10.8004V18.25H13.5004V7.44995H3.40039Z" fill="white"/>
<path d="M16.2002 10.15V18.25H18.9002V12.85H22.3002V10.15H16.2002Z" fill="white"/>
</svg>
