<svg width="72" height="72" viewBox="0 0 72 72" fill="none" xmlns="http://www.w3.org/2000/svg">
<rect x="12" y="12" width="48" height="48" rx="24" fill="white"/>
<g opacity="0.682245">
<circle cx="26.2523" cy="44.5092" r="4.375" transform="rotate(-10 26.2523 44.5092)" fill="url(#paint0_linear_4589_43361)"/>
<ellipse cx="26.2523" cy="43.8842" rx="4.375" ry="4.375" transform="rotate(-10 26.2523 43.8842)" fill="url(#paint1_linear_4589_43361)"/>
<path d="M25.6012 40.1912C27.6408 39.8316 29.5858 41.1935 29.9454 43.2331C30.3051 45.2727 28.9432 47.2176 26.9036 47.5773C24.864 47.9369 22.919 46.575 22.5594 44.5354C22.1997 42.4958 23.5616 40.5509 25.6012 40.1912Z" fill="#444444"/>
<path d="M25.759 41.9675C26.3246 41.8677 26.8569 42.1597 27.0048 42.7341L27.0249 42.8271L26.4275 42.9324C26.3776 42.6495 26.1488 42.5147 25.8643 42.5649C25.5799 42.6151 25.411 42.82 25.4608 43.1029C25.4902 43.2692 25.5287 43.2889 25.8811 43.2297L25.9788 43.2128C26.7025 43.0856 27.0888 43.1891 27.2071 43.8601C27.3232 44.5189 26.9181 45.0405 26.3195 45.146C25.7508 45.2463 25.2177 44.934 25.0662 44.3377L25.0455 44.2412L25.643 44.1359C25.6985 44.4508 25.9329 44.5982 26.2141 44.5486C26.4953 44.499 26.6651 44.2803 26.6096 43.9654C26.574 43.7632 26.5242 43.737 26.1654 43.7963L26.0667 43.8133C25.3437 43.9405 24.9772 43.8536 24.8634 43.2082C24.7513 42.5726 25.1636 42.0724 25.759 41.9675Z" fill="#979797"/>
<path d="M25.7025 41.4426C25.8492 41.4167 25.9898 41.5009 26.0397 41.6358L26.0539 41.6886L26.145 42.2048C26.174 42.3698 26.0639 42.5271 25.8989 42.5562C25.7522 42.5821 25.6116 42.4979 25.5618 42.363L25.5475 42.3102L25.4565 41.794C25.4274 41.629 25.5376 41.4717 25.7025 41.4426Z" fill="#979797"/>
<path d="M26.2577 44.5918C26.4044 44.5659 26.545 44.6501 26.5948 44.785L26.6091 44.8378L26.7001 45.354C26.7292 45.519 26.6191 45.6764 26.4541 45.7054C26.3074 45.7313 26.1668 45.6471 26.117 45.5122L26.1027 45.4594L26.0117 44.9432C25.9826 44.7782 26.0927 44.6209 26.2577 44.5918Z" fill="#979797"/>
</g>
<path fill-rule="evenodd" clip-rule="evenodd" d="M29.7798 28.8125C29.552 28.8125 19.125 37.4954 19.125 37.4954C19.125 37.4954 28.9996 58.0135 45.9334 52.6622C46.3495 41.4781 47.3536 38.4329 47.3536 38.4329C47.3536 38.4329 30.0076 28.8125 29.7798 28.8125Z" fill="url(#paint2_linear_4589_43361)"/>
<g opacity="0.265904">
<circle cx="39.7501" cy="39.1251" r="4.375" transform="rotate(43 39.7501 39.1251)" fill="url(#paint3_linear_4589_43361)"/>
<circle cx="39.7501" cy="38.5001" r="4.375" transform="rotate(43 39.7501 38.5001)" fill="url(#paint4_linear_4589_43361)"/>
<path d="M42.3075 35.7575C43.8222 37.17 43.9051 39.5429 42.4926 41.0576C41.0801 42.5723 38.7072 42.6551 37.1925 41.2427C35.6778 39.8302 35.595 37.4573 37.0074 35.9426C38.4199 34.4279 40.7928 34.345 42.3075 35.7575Z" fill="#444444"/>
<path d="M41.5779 37.0285C42.0089 37.4304 42.0674 38.0801 41.6398 38.6077L41.5683 38.69L41.113 38.2654C41.3375 38.0248 41.3207 37.7389 41.1039 37.5368C40.8872 37.3347 40.6009 37.3379 40.3764 37.5786C40.2445 37.7201 40.25 37.7662 40.5159 38.0186L40.59 38.0882C41.1411 38.6028 41.2811 38.998 40.7487 39.5689C40.226 40.1294 39.5122 40.1583 39.056 39.7329C38.6227 39.3288 38.5821 38.6641 39.0272 38.1181L39.1016 38.0329L39.5568 38.4575C39.307 38.7254 39.3158 39.0248 39.5301 39.2246C39.7443 39.4244 40.0436 39.4123 40.2934 39.1443C40.4539 38.9723 40.4474 38.9123 40.1776 38.6546L40.1027 38.5841C39.552 38.0703 39.4091 37.7031 39.9212 37.154C40.4254 36.6133 41.1243 36.6054 41.5779 37.0285Z" fill="#979797"/>
<path d="M42.0171 36.6127C42.1293 36.7173 42.1388 36.8942 42.0476 37.0308L42.0087 37.0799L41.5991 37.5191C41.4682 37.6595 41.2598 37.6779 41.1335 37.5602C41.0214 37.4556 41.0119 37.2786 41.1031 37.142L41.142 37.0929L41.5516 36.6537C41.6825 36.5133 41.8909 36.495 42.0171 36.6127Z" fill="#979797"/>
<path d="M39.5186 39.2921C39.6308 39.3967 39.6403 39.5737 39.549 39.7103L39.5101 39.7594L39.1006 40.1986C38.9697 40.339 38.7612 40.3573 38.635 40.2396C38.5228 40.135 38.5133 39.9581 38.6046 39.8215L38.6435 39.7723L39.053 39.3331C39.1839 39.1928 39.3924 39.1744 39.5186 39.2921Z" fill="#979797"/>
</g>
<ellipse cx="38.8608" cy="31.3963" rx="17.0104" ry="5.77179" transform="rotate(27 38.8608 31.3963)" fill="#1B1B1B"/>
<ellipse cx="39.6346" cy="30.6652" rx="17.0102" ry="5.51777" transform="rotate(27 39.6346 30.6652)" fill="url(#paint5_linear_4589_43361)"/>
<ellipse cx="42.7935" cy="24.8833" rx="11.1186" ry="7.17586" transform="rotate(27 42.7935 24.8833)" fill="url(#paint6_linear_4589_43361)"/>
<ellipse cx="50.853" cy="36.6762" rx="1.60655" ry="1.19619" transform="rotate(28 50.853 36.6762)" fill="url(#paint7_linear_4589_43361)"/>
<ellipse cx="37.7153" cy="33.5097" rx="1.60655" ry="1.19619" transform="rotate(28 37.7153 33.5097)" fill="url(#paint8_linear_4589_43361)"/>
<ellipse cx="28.2171" cy="25.3511" rx="1.60915" ry="1.19422" transform="rotate(48 28.2171 25.3511)" fill="url(#paint9_linear_4589_43361)"/>
<rect x="6" y="6" width="60" height="60" rx="30" stroke="white" stroke-opacity="0.2" stroke-width="12"/>
<defs>
<linearGradient id="paint0_linear_4589_43361" x1="21.9423" y1="40.1342" x2="21.9423" y2="48.7542" gradientUnits="userSpaceOnUse">
<stop stop-color="#4D4D4D"/>
<stop offset="1" stop-color="#242424"/>
</linearGradient>
<linearGradient id="paint1_linear_4589_43361" x1="21.8773" y1="39.5092" x2="21.8773" y2="48.2592" gradientUnits="userSpaceOnUse">
<stop stop-color="#737373"/>
<stop offset="1" stop-color="#565050"/>
</linearGradient>
<linearGradient id="paint2_linear_4589_43361" x1="31.4902" y1="22.4207" x2="24.1626" y2="42.1944" gradientUnits="userSpaceOnUse">
<stop stop-opacity="0.609648"/>
<stop offset="1" stop-opacity="0.01"/>
</linearGradient>
<linearGradient id="paint3_linear_4589_43361" x1="35.4401" y1="34.7501" x2="35.4401" y2="43.37" gradientUnits="userSpaceOnUse">
<stop stop-color="#4D4D4D"/>
<stop offset="1" stop-color="#242424"/>
</linearGradient>
<linearGradient id="paint4_linear_4589_43361" x1="35.3751" y1="34.1251" x2="35.3751" y2="42.8751" gradientUnits="userSpaceOnUse">
<stop stop-color="#737373"/>
<stop offset="1" stop-color="#565050"/>
</linearGradient>
<linearGradient id="paint5_linear_4589_43361" x1="20.4378" y1="30.8434" x2="20.5495" y2="36.1372" gradientUnits="userSpaceOnUse">
<stop offset="0.000422297" stop-color="#0E0E0E"/>
<stop offset="1" stop-color="#444444"/>
</linearGradient>
<linearGradient id="paint6_linear_4589_43361" x1="29.8257" y1="23.3628" x2="30.4401" y2="32.5889" gradientUnits="userSpaceOnUse">
<stop stop-color="#2B2B2B"/>
<stop offset="1" stop-color="#7B7B7B"/>
</linearGradient>
<linearGradient id="paint7_linear_4589_43361" x1="49.2465" y1="35.48" x2="49.2465" y2="37.8724" gradientUnits="userSpaceOnUse">
<stop stop-color="#828282"/>
<stop offset="1" stop-color="#696969"/>
</linearGradient>
<linearGradient id="paint8_linear_4589_43361" x1="36.1088" y1="32.3135" x2="36.1088" y2="34.7059" gradientUnits="userSpaceOnUse">
<stop stop-color="#828282"/>
<stop offset="1" stop-color="#696969"/>
</linearGradient>
<linearGradient id="paint9_linear_4589_43361" x1="26.6079" y1="24.1569" x2="26.6079" y2="26.5453" gradientUnits="userSpaceOnUse">
<stop stop-color="#828282"/>
<stop offset="1" stop-color="#696969"/>
</linearGradient>
</defs>
</svg>
