<svg width="20" height="18" viewBox="0 0 20 18" fill="none" xmlns="http://www.w3.org/2000/svg">
<path fill-rule="evenodd" clip-rule="evenodd" d="M11.7308 1.99011C10.9604 0.659543 9.03939 0.659547 8.26906 1.99012L0.737959 14.9984C-0.0339699 16.3317 0.928147 18.0005 2.46881 18.0005H17.531C19.0717 18.0005 20.0338 16.3317 19.2619 14.9984L11.7308 1.99011ZM18.3965 15.4994L10.8653 2.49115C10.4802 1.82587 9.51965 1.82586 9.13449 2.49115L1.60339 15.4994C1.21742 16.1661 1.69848 17.0005 2.46881 17.0005H17.531C18.3014 17.0005 18.7824 16.1661 18.3965 15.4994ZM10.5011 7.00046H9.50114V13.0005H10.5011V7.00046ZM10.5011 14.0005H9.50114V15.0005H10.5011V14.0005Z" fill="#CF0209"/>
</svg>
