<svg width="22" height="22" viewBox="0 0 22 22" fill="none" xmlns="http://www.w3.org/2000/svg">
<path fill-rule="evenodd" clip-rule="evenodd" d="M11 0.5C16.8 0.5 21.5 5.2 21.5 11C21.5 12.5 21.2 14 20.5 15.4L20.3 15.7L19.4 15.2C20.1 13.9 20.4 12.4 20.4 10.9C20.4 5.7 16.1 1.4 10.9 1.4C5.7 1.4 1.4 5.7 1.4 10.9C1.4 16.1 5.7 20.4 10.9 20.4C12.2 20.4 13.4 20.1 14.6 19.7L14.9 19.5L15.3 20.4C13.9 21 12.4 21.4 10.9 21.4C5.2 21.5 0.5 16.8 0.5 11C0.5 5.2 5.2 0.5 11 0.5ZM18.6998 18.1004L17.9998 17.4004L17.2998 18.1004L17.9998 18.8004L18.6998 18.1004ZM19.0004 16L19.9004 16.6L19.2004 17.4L18.4004 16.8L19.0004 16ZM17.0998 19.3996L16.5998 18.5996L15.7998 19.1996L16.2998 19.9996L17.0998 19.3996ZM10.5 7V6H11.5V7H10.5ZM12.5 15H11.5V8H10.5H9.5V9H10.5V15H9.5H8.5V15.5V16H9.5H10.5H11.5H12.5H13.5V15H12.5Z" fill="#CF0209"/>
</svg>
