<svg xmlns="http://www.w3.org/2000/svg" viewBox="0 0 268.54 193.79"><defs><style>.cls-1{fill:#0f549d;}.cls-2{fill:#b41f36;}.cls-3{fill:#329947;}.cls-4{fill:#f3f2f2;}</style></defs><title>icon-jcb</title><g id="圖層_2" data-name="圖層 2"><g id="圖層_1-2" data-name="圖層 1"><path class="cls-1" d="M0,36.49v66.83c1.93,8.3,10.4,14.1,19.86,14.1,10.79,0,18.5-7.71,18.5-17.48V66.53h29.3V99.94c0,18.5-23.64,28.27-41.12,28.27A46.84,46.84,0,0,1,0,120.09v73.7H46.77c16.45,0,35.46-15.41,35.46-35.46V0H37C15.94,0,0,13.36,0,36.49Z"/><path class="cls-2" d="M92.52,36.49V73.77a28.09,28.09,0,0,1,18.72-7.24h49.34V76.82c-11.82-2.57-23.13-4.11-28.78-4.11a22.1,22.1,0,1,0,0,44.2,153.35,153.35,0,0,0,28.78-3.61v9.77H111.24a28.09,28.09,0,0,1-18.72-7.24v78h46.77c16.44,0,35.46-15.41,35.46-35.46V0H129.52C108.45,0,92.52,13.36,92.52,36.49Z"/><path class="cls-3" d="M223.31,0c-21.07,0-37,13.36-37,36.49v30h54.53a14.4,14.4,0,0,1,0,28.79c8.74,0,15.41,6.16,15.41,13.87s-6.67,13.88-15.41,13.88H186.31v70.72h46.77c16.44,0,35.46-15.41,35.46-35.46V0Z"/><path class="cls-3" d="M230.56,82.46a10.12,10.12,0,0,0-9.77-9.76h-20V92.23h20A10.11,10.11,0,0,0,230.56,82.46Z"/><path class="cls-3" d="M221.31,97.37H200.74v19.52h20.57a9.77,9.77,0,0,0,0-19.53Z"/><path class="cls-4" d="M67.66,99.94V66.53H38.36V99.94c0,9.77-7.71,17.48-18.5,17.48-9.46,0-17.93-5.8-19.86-14.1v16.77a46.84,46.84,0,0,0,26.54,8.12C44,128.21,67.66,118.44,67.66,99.94Z"/><path class="cls-4" d="M256.25,109.19c0-7.71-6.67-13.87-15.41-13.87a14.4,14.4,0,0,0,0-28.79H186.31v56.54h54.53C249.58,123.07,256.25,116.9,256.25,109.19ZM200.74,72.7h20a9.77,9.77,0,1,1,0,19.53h-20Zm20.57,44.2H200.74V97.37h20.57a9.77,9.77,0,0,1,0,19.53Z"/><path class="cls-4" d="M160.58,123.07V113.3a153.35,153.35,0,0,1-28.78,3.61,22.1,22.1,0,1,1,0-44.2c5.65,0,17,1.54,28.78,4.11V66.53H111.24a28.09,28.09,0,0,0-18.72,7.24v42.06a28.09,28.09,0,0,0,18.72,7.24Z"/></g></g></svg>