<svg xmlns="http://www.w3.org/2000/svg" viewBox="0 0 233.43 145.88"><defs><style>.cls-1{fill:#e2574c;}.cls-2{fill:#f4b459;}</style></defs><title>icon-master</title><g id="圖層_2" data-name="圖層 2"><g id="圖層_1-2" data-name="圖層 1"><path class="cls-1" d="M145.84,72.94A72.92,72.92,0,1,1,72.92,0a72.92,72.92,0,0,1,72.92,72.94Z"/><path class="cls-2" d="M160.49,0a72.55,72.55,0,0,0-43.57,14.54H117c2.39,2.31,5,3.94,7.06,6.6l-15.17.24a77.44,77.44,0,0,0-6.59,7.73H129a67,67,0,0,1,5.62,7.26H97.43a72.19,72.19,0,0,0-3.72,7.28H138.9a60.83,60.83,0,0,1,3.14,7H91a71,71,0,0,0-2,7.71h55.18c.53,2.52.95,4.86,1.23,7.24H87.91c-.24,2.4-.37,4.83-.37,7.29h58.29a64.62,64.62,0,0,1-.44,7.29H87.91q.38,3.72,1.09,7.3h55.09c-.57,2.36-1.23,4.74-2.05,7.21H90.86A75.62,75.62,0,0,0,93.6,102h45.3a66.06,66.06,0,0,1-4.24,7.26H97.3a72.65,72.65,0,0,0,4.87,7.32L129,117c-2.29,2.75-5.23,4.41-7.91,6.82.15.11-4.28,0-13-.16A72.92,72.92,0,1,0,160.49,0Z"/></g></g></svg>