<svg xmlns="http://www.w3.org/2000/svg" viewBox="0 0 46 30"><defs><style>.cls-1{fill:#c32026;fill-rule:evenodd;}</style></defs><title>icon-auth</title><g id="圖層_2" data-name="圖層 2"><g id="分離模式"><path class="cls-1" d="M33,22H27a1,1,0,0,0,0,2h6a1,1,0,0,0,0-2m-6-2h2a1,1,0,0,0,0-2H27a1,1,0,0,0,0,2M8,28a4.55,4.55,0,0,1,.58-1s.62-.87,3.21-1h0A2.19,2.19,0,0,0,14,24c0-.34,0-1.48,0-1.48h0v-.78a11.3,11.3,0,0,1-2-1.38A3.06,3.06,0,0,1,11.23,19a35.53,35.53,0,0,1-.24-3.7C11,13.21,12,11,15,11h0c3,0,4,2.22,4,4.28a33,33,0,0,1-.24,3.7A3,3,0,0,1,18,20.33a11.3,11.3,0,0,1-2,1.38v.78s0,1.14,0,1.48a2.19,2.19,0,0,0,2.23,2h0c2.59.12,3.21,1,3.21,1A4.55,4.55,0,0,1,22,28ZM42,2a2,2,0,0,1,2,2V26a2,2,0,0,1-2,2H24.2A10.46,10.46,0,0,0,23,25.76S22.2,24,18,24c0,0,0-1,0-1a6.38,6.38,0,0,0,1.05-.82,4.15,4.15,0,0,0,1.46-2.58A41.71,41.71,0,0,0,21,15.38c0-3.17-1.26-6.38-6-6.38h-.12C10.25,9,9,12.21,9,15.38a41.71,41.71,0,0,0,.48,4.16,4.15,4.15,0,0,0,1.46,2.58,6.38,6.38,0,0,0,1.05.82s0,1,0,1C7.8,24,7,25.75,7,25.76A10.46,10.46,0,0,0,5.8,28H4a2,2,0,0,1-2-2V4A2,2,0,0,1,4,2ZM36,18H32a1,1,0,0,0,0,2h4a1,1,0,0,0,0-2m3-6H27a1,1,0,0,0,0,2H39a1,1,0,0,0,0-2m0-4H27a1,1,0,0,0,0,2H39a1,1,0,0,0,0-2m3-8a4,4,0,0,1,4,4V26a4,4,0,0,1-4,4H4a4,4,0,0,1-4-4V4A4,4,0,0,1,4,0H42"/></g></g></svg>