<svg xmlns="http://www.w3.org/2000/svg" viewBox="0 0 46 30"><defs><style>.cls-1{fill:#c32026;}</style></defs><title>icon-id-red</title><g id="圖層_2" data-name="圖層 2"><g id="圖層_1-2" data-name="圖層 1"><path class="cls-1" d="M36,18H32a1,1,0,0,0,0,2h4a1,1,0,0,0,0-2Z"/><path class="cls-1" d="M27,20h2a1,1,0,0,0,0-2H27a1,1,0,0,0,0,2Z"/><path class="cls-1" d="M33,22H27a1,1,0,0,0,0,2h6a1,1,0,0,0,0-2Z"/><path class="cls-1" d="M39,8H27a1,1,0,0,0,0,2H39a1,1,0,0,0,0-2Z"/><path class="cls-1" d="M42,0H4A4,4,0,0,0,0,4V26a4,4,0,0,0,4,4H42a4,4,0,0,0,4-4V4A4,4,0,0,0,42,0ZM8,28a4.35,4.35,0,0,1,.58-1s.62-.87,3.21-1A2.19,2.19,0,0,0,14,24V21.74a11.86,11.86,0,0,1-2-1.38A3,3,0,0,1,11.23,19c-.14-1.23-.22-2.46-.24-3.7,0-2.09,1-4.3,4-4.3s4,2.22,4,4.28a32.68,32.68,0,0,1-.24,3.7A3,3,0,0,1,18,20.33a11.86,11.86,0,0,1-2,1.38V24a2.19,2.19,0,0,0,2.23,2c2.59.12,3.21,1,3.21,1A4.47,4.47,0,0,1,22,28Zm36-2a2,2,0,0,1-2,2H24.19A10.74,10.74,0,0,0,23,25.76S22.19,24,18,24V23a6.44,6.44,0,0,0,1.05-.82,4.22,4.22,0,0,0,1.46-2.58c.23-1.4.39-2.81.48-4.22C21,12.21,19.74,9,15,9h-.12C10.26,9,9,12.21,9,15.38c.1,1.39.26,2.78.48,4.16A4.22,4.22,0,0,0,11,22.12a6.44,6.44,0,0,0,1.05.82v1c-4.18.06-5,1.81-5,1.82A10.74,10.74,0,0,0,5.82,28H4a2,2,0,0,1-2-2V4A2,2,0,0,1,4,2H42a2,2,0,0,1,2,2Z"/><path class="cls-1" d="M39,12H27a1,1,0,0,0,0,2H39a1,1,0,0,0,0-2Z"/></g></g></svg>