<svg width="24" height="25" viewBox="0 0 24 25" fill="none" xmlns="http://www.w3.org/2000/svg">
<path fill-rule="evenodd" clip-rule="evenodd" d="M22.3239 4.57072L18.6134 7.72468C19.5882 8.60678 20.5264 9.70722 21.4277 11.0237C21.9568 11.7966 21.9557 12.8028 21.4248 13.5746L20.8629 14.3817C20.7398 14.5552 20.638 14.6957 20.557 14.8037L20.4511 14.9413L19.6693 14.3177L19.8258 14.111C19.9978 13.8765 20.2574 13.5073 20.6009 13.0079C20.8974 12.5767 20.8981 12.0203 20.6025 11.5886C19.7108 10.2861 18.7918 9.2168 17.8449 8.37786L15.6048 10.282C16.0579 10.9304 16.3237 11.7194 16.3237 12.5705C16.3237 14.7796 14.5329 16.5705 12.3237 16.5705C11.2401 16.5705 10.2571 16.1396 9.53677 15.4398L7.71992 16.9841C9.19582 18.0451 10.7409 18.5709 12.3613 18.5714C13.595 18.6445 14.481 18.5261 15.009 18.2441L15.1245 18.1761L15.669 19.0149C14.9423 19.4865 13.8243 19.6598 12.3317 19.5705C10.4291 19.5705 8.62996 18.9267 6.93614 17.6503L2.32392 21.5707L1.67627 20.8088L21.6763 3.80878L22.3239 4.57072ZM10.3034 14.7882L14.8382 10.9336C15.1453 11.4043 15.3237 11.9666 15.3237 12.5705C15.3237 14.2274 13.9806 15.5705 12.3237 15.5705C11.5455 15.5705 10.8365 15.2742 10.3034 14.7882ZM16.9959 6.483C15.518 5.54369 13.9629 5.0705 12.3317 5.0705C8.9668 5.0705 5.92557 7.08418 3.2182 11.0495C2.69224 11.8198 2.69224 12.8212 3.21819 13.5915C3.93117 14.6357 4.6673 15.5446 5.4264 16.3171L6.19019 15.6678C5.45744 14.93 4.74234 14.0504 4.04405 13.0276C3.75029 12.5974 3.75029 12.0436 4.04406 11.6134C6.58117 7.89743 9.34035 6.0705 12.3317 6.0705C13.665 6.0705 14.9521 6.43339 16.1939 7.16467L16.9959 6.483ZM14.0694 8.97051C13.5419 8.71424 12.9496 8.5705 12.3237 8.5705C10.1146 8.5705 8.32373 10.3614 8.32373 12.5705C8.32373 12.9677 8.38162 13.3513 8.48942 13.7135L9.35154 12.9807C9.3332 12.8466 9.32373 12.7096 9.32373 12.5705C9.32373 10.9136 10.6669 9.5705 12.3237 9.5705C12.6314 9.5705 12.9283 9.61682 13.2078 9.70288L14.0694 8.97051ZM19.9142 15.6064L19.1482 14.9636L18.5054 15.7297L19.2714 16.3724L19.9142 15.6064ZM18.7853 16.9042L18.0782 16.1971L17.3711 16.9042L18.0782 17.6113L18.7853 16.9042ZM17.524 18.1515L16.9221 17.3528L16.1235 17.9546L16.7253 18.7533L17.524 18.1515Z" fill="#004D99"/>
</svg>
