<svg width="40" height="40" viewBox="0 0 40 40" fill="none" xmlns="http://www.w3.org/2000/svg">
<path fill-rule="evenodd" clip-rule="evenodd" d="M25.9506 34.6771C24.1135 35.4227 22.1047 35.8333 20.0001 35.8333C11.2556 35.8333 4.16675 28.7445 4.16675 20C4.16675 11.2555 11.2556 4.16666 20.0001 4.16666C21.5038 4.16666 22.98 4.37656 24.3966 4.78525L25 4.97254L24.474 6.55404C23.0443 6.07855 21.5393 5.83332 20.0001 5.83332C12.176 5.83332 5.83341 12.176 5.83341 20C5.83341 27.824 12.176 34.1667 20.0001 34.1667C21.958 34.1667 23.8232 33.7694 25.5195 33.0512L25.9506 34.6771ZM33.1217 25.35C33.7955 23.6993 34.1667 21.893 34.1667 20C34.7414 20.0018 34.7695 20.0003 34.7853 19.9995C34.7962 19.9989 34.8012 19.9986 34.9806 20L34.9808 20L34.9816 20L34.9831 20L34.9833 20L34.984 20L34.9855 20L34.9858 20C35.134 20.0012 35.168 20.0014 35.202 20.0013L35.2349 20.0011C35.2923 20.0007 35.4069 20 35.8334 20C35.8334 22.0569 35.4412 24.0223 34.7274 25.8253L33.1217 25.35ZM32.329 10.5731L33.5356 11.7228L32.2583 13.063L17.7834 27.4614L11.0545 20.1738L12.279 19.0432L17.8334 25.0583L31.0672 11.8974L32.329 10.5731ZM28.3795 31.4521L29.2872 32.8498L27.8894 33.7576L26.9817 32.3598L28.3795 31.4521ZM32.5097 26.7146L33.9075 27.6223L32.9998 29.0201L31.602 28.1124L32.5097 26.7146ZM30.7582 29.2702L31.9367 30.4487L30.7582 31.6272L29.5797 30.4487L30.7582 29.2702Z" fill="white"/>
</svg>
