<svg width="24" height="25" viewBox="0 0 24 25" fill="none" xmlns="http://www.w3.org/2000/svg">
<path d="M12.008 5.18964C15.3656 5.18964 18.401 7.19463 21.1039 11.1429C21.6331 11.9158 21.6319 12.9219 21.1011 13.6937L20.5391 14.5008C20.4161 14.6744 20.3143 14.8149 20.2333 14.9228L20.1273 15.0604L19.3456 14.4368L19.5021 14.2301C19.6741 13.9957 19.9336 13.6265 20.2772 13.127C20.5737 12.6959 20.5743 12.1395 20.2788 11.7078C17.7463 8.00842 14.9928 6.18964 12.008 6.18964C9.01662 6.18964 6.25744 8.01657 3.72033 11.7325C3.42656 12.1628 3.42656 12.7165 3.72032 13.1468C6.25744 16.8627 9.01662 18.6896 12.0376 18.6905C13.2713 18.7636 14.1572 18.6452 14.6853 18.3632L14.8008 18.2953L15.3452 19.1341C14.6186 19.6057 13.5005 19.7789 12.008 19.6896C8.64307 19.6896 5.60184 17.6759 2.89446 13.7106C2.36851 12.9403 2.36851 11.9389 2.89447 11.1686C5.60184 7.20332 8.64307 5.18964 12.008 5.18964Z" fill="#0F6AC4"/>
<path d="M12.008 5.18964C15.3656 5.18964 18.401 7.19463 21.1039 11.1429C21.6331 11.9158 21.6319 12.9219 21.1011 13.6937L20.5391 14.5008C20.4161 14.6744 20.3143 14.8149 20.2333 14.9228L20.1273 15.0604L19.3456 14.4368L19.5021 14.2301C19.6741 13.9957 19.9336 13.6265 20.2772 13.127C20.5737 12.6959 20.5743 12.1395 20.2788 11.7078C17.7463 8.00842 14.9928 6.18964 12.008 6.18964C9.01662 6.18964 6.25744 8.01657 3.72033 11.7325C3.42656 12.1628 3.42656 12.7165 3.72032 13.1468C6.25744 16.8627 9.01662 18.6896 12.0376 18.6905C13.2713 18.7636 14.1572 18.6452 14.6853 18.3632L14.8008 18.2953L15.3452 19.1341C14.6186 19.6057 13.5005 19.7789 12.008 19.6896C8.64307 19.6896 5.60184 17.6759 2.89446 13.7106C2.36851 12.9403 2.36851 11.9389 2.89447 11.1686C5.60184 7.20332 8.64307 5.18964 12.008 5.18964Z" fill="#004D99"/>
<path d="M18.8244 15.0827L19.5905 15.7255L18.9477 16.4916L18.1817 15.8488L18.8244 15.0827Z" fill="#0F6AC4"/>
<path d="M18.8244 15.0827L19.5905 15.7255L18.9477 16.4916L18.1817 15.8488L18.8244 15.0827Z" fill="#004D99"/>
<path d="M18.4616 17.0233L17.7545 16.3162L17.0474 17.0233L17.7545 17.7305L18.4616 17.0233Z" fill="#0F6AC4"/>
<path d="M18.4616 17.0233L17.7545 16.3162L17.0474 17.0233L17.7545 17.7305L18.4616 17.0233Z" fill="#004D99"/>
<path d="M16.5984 17.472L17.2002 18.2706L16.4016 18.8724L15.7998 18.0738L16.5984 17.472Z" fill="#0F6AC4"/>
<path d="M16.5984 17.472L17.2002 18.2706L16.4016 18.8724L15.7998 18.0738L16.5984 17.472Z" fill="#004D99"/>
<path fill-rule="evenodd" clip-rule="evenodd" d="M12 8.68964C14.2091 8.68964 16 10.4805 16 12.6896C16 14.8988 14.2091 16.6896 12 16.6896C9.79086 16.6896 8 14.8988 8 12.6896C8 10.4805 9.79086 8.68964 12 8.68964ZM12 9.68964C10.3431 9.68964 9 11.0328 9 12.6896C9 14.3465 10.3431 15.6896 12 15.6896C13.6569 15.6896 15 14.3465 15 12.6896C15 11.0328 13.6569 9.68964 12 9.68964Z" fill="#0F6AC4"/>
<path fill-rule="evenodd" clip-rule="evenodd" d="M12 8.68964C14.2091 8.68964 16 10.4805 16 12.6896C16 14.8988 14.2091 16.6896 12 16.6896C9.79086 16.6896 8 14.8988 8 12.6896C8 10.4805 9.79086 8.68964 12 8.68964ZM12 9.68964C10.3431 9.68964 9 11.0328 9 12.6896C9 14.3465 10.3431 15.6896 12 15.6896C13.6569 15.6896 15 14.3465 15 12.6896C15 11.0328 13.6569 9.68964 12 9.68964Z" fill="#004D99"/>
</svg>
