<svg xmlns="http://www.w3.org/2000/svg" viewBox="0 0 287.37 88.42"><defs><style>.cls-1{fill:none;}.cls-2{fill:#293688;}.cls-3{fill:#f7981d;}</style></defs><title>icon-visa</title><g id="圖層_2" data-name="圖層 2"><g id="圖層_1-2" data-name="圖層 1"><path class="cls-1" d="M251.86,24.66c-1.18,3.22-3.25,8.4-3.11,8.18,0,0-7.42,19-9.36,23.94h19.5c-.95-4.29-5.44-24.74-5.44-24.74Z"/><polygon class="cls-2" points="117.43 1.38 102.93 87.04 126.41 87.04 140.92 1.38 117.43 1.38"/><path class="cls-2" d="M186.88,35.88c-8.21-4-13.24-6.6-13.18-10.62,0-3.56,4.25-7.37,13.45-7.37a43.65,43.65,0,0,1,17.58,3.28l2.1,1L210,3.59A61.15,61.15,0,0,0,189,0c-23.21,0-39.56,11.62-39.7,28.27-.13,12.3,11.67,19.17,20.58,23.27C179,55.73,182.07,58.42,182,62.16c-.05,5.75-7.3,8.37-14.05,8.37-9.4,0-14.4-1.3-22.11-4.5l-3-1.36-3.3,19.17c5.49,2.4,15.64,4.47,26.17,4.58,24.69,0,40.72-11.49,40.9-29.27C206.69,49.41,200.43,42,186.88,35.88Z"/><path class="cls-2" d="M268,1.38h-18c-5.62,0-9.69,1.72-12.16,7.29L203.09,87H228l4.83-13.12H262.5L265.26,87h22.11Zm-28.64,55.4c1.94-4.94,9.36-23.94,9.36-23.94-.14.22,1.93-5,3.11-8.18L253.45,32s4.49,20.45,5.44,24.74Z"/><path class="cls-2" d="M83.59,1.38,60.1,60.1,58,48.35c-5.48-13.93-16.64-26.64-32.41-35.6L46.28,87H71.15l37.3-85.66Z"/><path class="cls-3" d="M58,48.35,49.51,8.69c-1.42-5.42-5.72-7.12-10.82-7.31H0V2.76a98.56,98.56,0,0,1,25.62,10l-.09-.32C40.44,19.85,53.74,34.67,58,48.35Z"/><path class="cls-3" d="M58,48.35c-4.29-13.68-17.59-28.5-32.5-35.92l.09.32C41.39,21.71,52.55,34.42,58,48.35Z"/></g></g></svg>