<svg xmlns="http://www.w3.org/2000/svg" viewBox="0 0 17.07 20.11"><g id="圖層_2" data-name="圖層 2"><g id="圖層_1-2" data-name="圖層 1"><path d="M12.33,15.3A6.19,6.19,0,0,0,10,3.38H8.24l2,2.05a.25.25,0,0,1-.36.36L7.44,3.3a.08.08,0,0,1,0,0h0l0,0v0a0,0,0,0,1,0,0,.07.07,0,0,1,0,0,.11.11,0,0,1,0-.05,0,0,0,0,1,0,0V3l0,0h0s0,0,0,0L9.93.45a.21.21,0,0,1,.18-.07.26.26,0,0,1,.18.07.25.25,0,0,1,0,.36l-2,2.06H10a6.7,6.7,0,0,1,2.34,13Z" fill="#141414" stroke="#141414" stroke-miterlimit="10" stroke-width="0.75"/><line x1="12.1" y1="15.39" x2="12.1" y2="15.93" fill="#4b4b4b"/><rect x="1" y="8.98" width="10.14" height="10.14" fill="none" stroke="#141414" stroke-miterlimit="10" stroke-width="2"/></g></g></svg>