<svg xmlns="http://www.w3.org/2000/svg" viewBox="0 0 17.07 20.11"><g id="圖層_2" data-name="圖層 2"><g id="圖層_1-2" data-name="圖層 1"><path d="M4.74,15.3A6.19,6.19,0,0,1,7.08,3.38H8.83l-2,2.05a.25.25,0,0,0,.36.36L9.63,3.3l0,0h0l0,0v0s0,0,0,0a.43.43,0,0,0,0,0,.43.43,0,0,1,0-.05V3l0,0h0l0,0L7.14.45A.26.26,0,0,0,7,.38a.24.24,0,0,0-.18.07.25.25,0,0,0,0,.36L8.83,2.87H7.08a6.7,6.7,0,0,0-2.34,13Z" fill="#141414" stroke="#141414" stroke-miterlimit="10" stroke-width="0.75"/><line x1="4.96" y1="15.39" x2="4.96" y2="15.93" fill="#4b4b4b"/><rect x="5.93" y="8.98" width="10.14" height="10.14" fill="none" stroke="#141414" stroke-miterlimit="10" stroke-width="2"/></g></g></svg>