<svg xmlns="http://www.w3.org/2000/svg" viewBox="0 0 37.73 32.05"><defs><style>.cls-1{fill:#c32026;}</style></defs><title>icon-building-title</title><g id="圖層_2" data-name="圖層 2"><g id="圖層_1-2" data-name="圖層 1"><g id="圖層_2-2" data-name="圖層 2"><g id="分離模式"><path class="cls-1" d="M23.39,10.78h1.06a.77.77,0,1,0,0-1.53H23.39a.77.77,0,1,0,0,1.53Z"/><path class="cls-1" d="M37.57,29.42l-1-2.32A1.91,1.91,0,0,0,34.86,26H34V10.78h1.64A1.52,1.52,0,0,0,37.15,9.6a1.55,1.55,0,0,0-.84-1.72L20.45.37a3.75,3.75,0,0,0-3.24,0L1.27,7.88A1.55,1.55,0,0,0,.56,10a1.57,1.57,0,0,0,1.36.87h1.6V26H2.84a2,2,0,0,0-1.76,1.14L.13,29.42a2,2,0,0,0,.19,1.79,1.87,1.87,0,0,0,1.56.84H35.81a1.9,1.9,0,0,0,1.57-.84A1.8,1.8,0,0,0,37.57,29.42ZM2,9.25,17.9,1.74a2.2,2.2,0,0,1,1.94,0L35.7,9.25H33.26a.77.77,0,0,0-.76.77.19.19,0,0,0,0,.15V26H29.45V16.31a3.05,3.05,0,0,0-6.1,0V26H21.82V16.31a3,3,0,0,0-6.1,0V26H14.2V16.31a3.05,3.05,0,0,0-6.1,0V26h-3V10.78H20a.77.77,0,1,0,0-1.53Zm26,7.06V26H24.87V16.31a1.53,1.53,0,0,1,3.05-.25,1,1,0,0,1,0,.25Zm-7.62,0V26H17.25V16.31a1.53,1.53,0,0,1,3.05-.25,1,1,0,0,1,0,.25Zm-7.63,0V26H9.62V16.31a1.53,1.53,0,1,1,3.05-.25,1,1,0,0,1,0,.25ZM36.12,30.37s-.15.19-.31.19H1.88a.3.3,0,0,1-.3-.19.37.37,0,0,1,0-.38l1-2.25A.41.41,0,0,1,3,27.51H35a.44.44,0,0,1,.38.23L36.23,30a.6.6,0,0,1-.11.34Z"/></g></g></g></g></svg>