<svg xmlns="http://www.w3.org/2000/svg" viewBox="0 0 46 30"><defs><style>.cls-1,.cls-2{fill:#fff;}.cls-1{fill-rule:evenodd;}</style></defs><title>icon-card</title><g id="圖層_2" data-name="圖層 2"><g id="分離模式"><path class="cls-1" d="M37.72,22.22h-6a1,1,0,0,0,0,2h6a1,1,0,0,0,0-2"/><path class="cls-1" d="M31.72,19.66h6a1,1,0,0,0,0-2h-6a1,1,0,0,0,0,2"/><path class="cls-1" d="M44,12H2a1,1,0,0,0,0,2H44a1,1,0,0,0,0-2"/><path class="cls-1" d="M44,7H2A1,1,0,0,0,2,9H44a1,1,0,0,0,0-2"/><path class="cls-2" d="M42,0H4A4,4,0,0,0,0,4V26a4,4,0,0,0,4,4H42a4,4,0,0,0,4-4V4A4,4,0,0,0,42,0Zm2,26a2,2,0,0,1-2,2H4a2,2,0,0,1-2-2V4A2,2,0,0,1,4,2H42a2,2,0,0,1,2,2Z"/></g></g></svg>