<svg width="20" height="20" viewBox="0 0 20 20" fill="none" xmlns="http://www.w3.org/2000/svg">
<path fill-rule="evenodd" clip-rule="evenodd" d="M6.64639 1.66699L14.1116 8.69355L14.1854 8.76735L14.297 8.8974C14.8535 9.61189 14.7856 10.6459 14.1138 11.2804L6.64716 18.3337L5.83331 17.4721L13.3 10.4189L13.3709 10.3388C13.5374 10.1125 13.5236 9.79267 13.3238 9.58119L5.83408 2.52999L6.64639 1.66699Z" fill="#0F6AC4"/>
<path fill-rule="evenodd" clip-rule="evenodd" d="M6.64639 1.66699L14.1116 8.69355L14.1854 8.76735L14.297 8.8974C14.8535 9.61189 14.7856 10.6459 14.1138 11.2804L6.64716 18.3337L5.83331 17.4721L13.3 10.4189L13.3709 10.3388C13.5374 10.1125 13.5236 9.79267 13.3238 9.58119L5.83408 2.52999L6.64639 1.66699Z" fill="#004D99"/>
</svg>
