<svg width="60" height="60" viewBox="0 0 60 60" fill="none" xmlns="http://www.w3.org/2000/svg">
<path d="M30 60C33.9878 60 37.7938 59.2219 41.2746 57.8093L40.4578 54.7286C37.2439 56.0895 33.7098 56.8421 30 56.8421C15.1755 56.8421 3.15789 44.8245 3.15789 30C3.15789 15.1755 15.1755 3.15789 30 3.15789C32.9165 3.15789 35.7679 3.62254 38.477 4.52347L39.4735 1.52694L38.3302 1.17207C35.6461 0.397718 32.8492 0 30 0C13.4315 0 0 13.4315 0 30C0 46.5685 13.4315 60 30 60Z" fill="#CF0209"/>
<path d="M56.8421 30C56.8421 33.5868 56.1386 37.0092 54.862 40.1369L57.9044 41.0374C59.2568 37.6212 60 33.8974 60 30C59.1919 30 58.9747 30.0014 58.8661 30.0022L58.8037 30.0025C58.7385 30.0027 58.6733 30.0022 58.3841 30C58.0442 29.9974 58.0348 29.9979 58.014 29.999C57.9842 30.0006 57.931 30.0034 56.8421 30Z" fill="#CF0209"/>
<path d="M53.36 12.1385L55.6463 14.3168L53.226 16.8562L25.7999 44.1375L13.0505 30.3293L15.3706 28.187L25.8947 39.5842L50.9694 14.6476L53.36 12.1385Z" fill="#CF0209"/>
<path d="M47.5967 54.3471L45.8768 51.6987L43.2283 53.4186L44.9482 56.067L47.5967 54.3471Z" fill="#CF0209"/>
<path d="M53.7025 42.7224L56.3509 44.4423L54.631 47.0907L51.9826 45.3708L53.7025 42.7224Z" fill="#CF0209"/>
<path d="M52.6168 49.7975L50.3838 47.5645L48.1509 49.7975L50.3838 52.0305L52.6168 49.7975Z" fill="#CF0209"/>
</svg>
