<svg width="18" height="18" viewBox="0 0 18 18" fill="none" xmlns="http://www.w3.org/2000/svg">
<path fill-rule="evenodd" clip-rule="evenodd" d="M9 0.25C13.8333 0.25 17.75 4.16667 17.75 9C17.75 10.25 17.5 11.5 16.9167 12.6667L16.75 12.9167L16 12.5C16.5833 11.4167 16.8333 10.1667 16.8333 8.91667C16.8333 4.58333 13.25 1 8.91667 1C4.58333 1 1 4.58333 1 8.91667C1 13.25 4.58333 16.8333 8.91667 16.8333C10 16.8333 11 16.5833 12 16.25L12.25 16.0833L12.5833 16.8333C11.4167 17.3333 10.1667 17.6667 8.91667 17.6667C4.16667 17.75 0.25 13.8333 0.25 9C0.25 4.16667 4.16667 0.25 9 0.25ZM15.4165 14.917L14.8332 14.3337L14.2498 14.917L14.8332 15.5003L15.4165 14.917ZM15.667 13.1667L16.417 13.6667L15.8337 14.3333L15.167 13.8333L15.667 13.1667ZM14.0832 15.9997L13.6665 15.333L12.9998 15.833L13.4165 16.4997L14.0832 15.9997ZM8.58333 5.66667V4.83333H9.41667V5.66667H8.58333ZM10.25 12.3333H9.41667V6.5H8.58333H7.75V7.33333H8.58333V12.3333H7.75H6.91667V12.75V13.1667H7.75H8.58333H9.41667H10.25H11.0833V12.3333H10.25Z" fill="#4669E5"/>
</svg>
