<svg width="14" height="15" viewBox="0 0 14 15" fill="none" xmlns="http://www.w3.org/2000/svg">
<path fill-rule="evenodd" clip-rule="evenodd" d="M7 0.5C10.8667 0.5 14 3.63333 14 7.5C14 8.5 13.8 9.5 13.3333 10.4333L13.2 10.6333L12.6 10.3C13.0667 9.43333 13.2667 8.43333 13.2667 7.43333C13.2667 3.96667 10.4 1.1 6.93333 1.1C3.46667 1.1 0.6 3.96667 0.6 7.43333C0.6 10.9 3.46667 13.7667 6.93333 13.7667C7.8 13.7667 8.6 13.5667 9.4 13.3L9.6 13.1667L9.86667 13.7667C8.93333 14.1667 7.93333 14.4333 6.93333 14.4333C3.13333 14.5 0 11.3667 0 7.5C0 3.63333 3.13333 0.5 7 0.5ZM12.1332 12.2336L11.6665 11.7669L11.1999 12.2336L11.6665 12.7003L12.1332 12.2336ZM12.3336 10.8333L12.9336 11.2333L12.4669 11.7667L11.9336 11.3667L12.3336 10.8333ZM11.0665 13.0997L10.7332 12.5664L10.1999 12.9664L10.5332 13.4997L11.0665 13.0997ZM6.66667 4.83333V4.16667H7.33333V4.83333H6.66667ZM8 10.1667H7.33333V5.5H6.66667H6V6.16667H6.66667V10.1667H6H5.33333V10.5V10.8333H6H6.66667H7.33333H8H8.66667V10.1667H8Z" fill="#979797"/>
</svg>
