<svg width="48" height="44" viewBox="0 0 48 44" fill="none" xmlns="http://www.w3.org/2000/svg">
<path fill-rule="evenodd" clip-rule="evenodd" d="M33.0198 5.9679C30.2254 3.09416 26.5757 1.17464 22.5208 0.532413C12.293 -1.08752 2.68848 5.89058 1.06855 16.1184C-0.551386 26.3463 6.42671 35.9508 16.6546 37.5707C22.3078 38.4661 27.9494 36.7452 32.1258 32.9936L32.2378 32.8921L45.6747 43.7898L47.2365 41.8376L33.9768 31.0773C35.3464 29.4415 36.4329 27.5761 37.1789 25.5506C37.6015 24.4032 37.9127 23.2107 38.1069 21.9847L35.6376 21.5936L35.4923 22.3862C35.3281 23.1727 35.1076 23.9408 34.833 24.6865C33.9184 27.1698 32.4125 29.3755 30.4552 31.1338C26.8333 34.3872 21.9469 35.8778 17.0456 35.1015C8.18151 33.6976 2.13383 25.3736 3.53777 16.5095C4.94171 7.64537 13.2656 1.59769 22.1298 3.00163C25.8804 3.59568 29.2259 5.44693 31.7024 8.22038L33.5672 6.55527L33.0198 5.9679ZM34.7944 8.09594L32.6515 9.38353L33.9391 11.5265L36.082 10.2389L34.7944 8.09594ZM37.3362 12.7467L34.9586 13.5192L35.7311 15.8968L38.1088 15.1243L37.3362 12.7467ZM38.2824 17.4775L35.7884 17.6519L35.9628 20.1458L38.4567 19.9714L38.2824 17.4775ZM24.4314 16.017C24.4314 13.2426 22.4464 11.4418 19.9744 11.5014C17.5581 11.5597 15.5884 13.3783 15.5884 16.01H18.5288L18.5517 15.7031C18.6724 14.9234 19.2595 14.4599 20.0453 14.441C20.9127 14.4201 21.491 14.9447 21.491 16.01C21.4887 16.4936 21.4345 16.5702 20.9806 16.8524L20.4237 17.208C19.5354 17.8291 19.0827 18.5142 19.0827 19.6974V22.3103H22.0231L22.0232 19.6597C22.026 19.6555 22.0314 19.651 22.0415 19.6446L22.3153 19.4833L22.8869 19.1134C23.8941 18.3885 24.4244 17.4926 24.4314 16.017ZM22.1641 25.2515H19.2237V28.1919H22.1641V25.2515Z" fill="#E54646"/>
</svg>
