<svg width="24" height="24" viewBox="0 0 24 24" fill="none" xmlns="http://www.w3.org/2000/svg">
<path fill-rule="evenodd" clip-rule="evenodd" d="M19.2642 11.1761C19.2586 10.8694 19.2343 10.4815 19.1918 10.0128C19.1491 9.54394 19.088 9.12489 19.0085 8.75566C18.9176 8.34094 18.7201 7.99147 18.4162 7.70738C18.1123 7.42323 17.7586 7.25851 17.355 7.21299C16.0936 7.07105 14.1874 7 11.6363 7C9.08527 7 7.17902 7.07105 5.91765 7.21299C5.51418 7.25848 5.16184 7.42323 4.86079 7.70738C4.55962 7.99139 4.36359 8.34085 4.27266 8.75566C4.18753 9.12501 4.12352 9.54403 4.08093 10.0128C4.03839 10.4815 4.01421 10.8692 4.00857 11.1761C4.00281 11.483 4 11.909 4 12.4545C4 13 4.00281 13.4262 4.0086 13.7329C4.01424 14.0399 4.03842 14.4276 4.08096 14.8962C4.12355 15.3651 4.18466 15.7841 4.26421 16.1534C4.35514 16.5683 4.55255 16.9177 4.85652 17.2016C5.16056 17.4857 5.51433 17.6505 5.91768 17.696C7.17905 17.8381 9.08518 17.9091 11.6364 17.9091C14.1876 17.9091 16.0936 17.8381 17.3551 17.696C17.7586 17.6505 18.1108 17.4857 18.412 17.2016C18.7131 16.9176 18.909 16.5681 19 16.1534C19.0852 15.7841 19.1491 15.3651 19.1918 14.8962C19.2343 14.4276 19.2584 14.0398 19.2642 13.7329C19.2699 13.4262 19.2727 13 19.2727 12.4545C19.2727 11.909 19.2699 11.483 19.2642 11.1761ZM14.6534 12.9148L10.2899 15.642C10.2103 15.6988 10.1136 15.7272 10 15.7272C9.91484 15.7272 9.82678 15.7043 9.73588 15.6589C9.54841 15.5568 9.45471 15.3976 9.45471 15.1817V9.72738C9.45471 9.51158 9.54844 9.35242 9.73588 9.25018C9.92911 9.14776 10.1137 9.15349 10.2899 9.26722L14.6535 11.9944C14.8239 12.0908 14.9091 12.2443 14.9091 12.4546C14.9091 12.6647 14.8238 12.8183 14.6534 12.9148Z" fill="white"/>
</svg>
