<svg width="24" height="24" viewBox="0 0 24 24" fill="none" xmlns="http://www.w3.org/2000/svg">
<path fill-rule="evenodd" clip-rule="evenodd" d="M5.93931 15.2629C5.93931 15.7484 5.5642 16.1511 5.10263 16.1511H1.92883C1.46992 16.1511 1.09082 15.7484 1.09082 15.2629V8.52633C1.09082 8.03943 1.46992 7.63672 1.92883 7.63672C2.39173 7.63672 2.76684 8.03943 2.76684 8.52633V14.3733H5.10263C5.56553 14.3733 5.93931 14.7732 5.93931 15.2629ZM8.36355 15.2629C8.36355 15.7484 8.00126 16.1511 7.5529 16.1511C7.10967 16.1511 6.74739 15.7484 6.74739 15.2629V8.52633C6.74739 8.03943 7.10967 7.63672 7.55675 7.63672C8.00126 7.63672 8.36355 8.03943 8.36355 8.52633V15.2629ZM16.6034 16.1062C16.991 15.9841 17.2524 15.6459 17.2524 15.2642V8.52647C17.2524 8.03949 16.8243 7.63672 16.306 7.63672C15.7832 7.63672 15.3595 8.03949 15.3595 8.52647V12.7016L11.6608 7.9988C11.4805 7.78688 11.2101 7.63953 10.9172 7.63953C10.83 7.63953 10.7158 7.65356 10.6257 7.68584C10.2396 7.80653 9.97971 8.14475 9.97971 8.52647V15.2628C9.97971 15.7484 10.4004 16.1511 10.9202 16.1511C11.449 16.1511 11.8681 15.7484 11.8681 15.2628V11.1115L15.5383 15.7961C15.7171 16.022 15.9875 16.1497 16.3045 16.1497C16.4036 16.1497 16.5073 16.1357 16.6034 16.1062ZM22.0705 11.0043C22.535 11.0043 22.909 11.407 22.909 11.8953C22.909 12.3822 22.535 12.7849 22.0705 12.7849H19.7348V14.3733H22.0705C22.535 14.3733 22.909 14.7732 22.909 15.2629C22.909 15.7484 22.535 16.1511 22.0705 16.1511H18.895C18.4358 16.1511 18.0605 15.7484 18.0605 15.2629V8.52633C18.0605 8.03943 18.4358 7.63672 18.899 7.63672H22.0745C22.535 7.63672 22.909 8.03943 22.909 8.52633C22.909 9.01884 22.535 9.41593 22.0705 9.41593H19.7348V11.0043H22.0705Z" fill="white"/>
</svg>
