<svg xmlns="http://www.w3.org/2000/svg" viewBox="0 0 125.14 100.11"><defs><style>.cls-1{fill:#fff;}</style></defs><title>icon-img</title><g id="圖層_2" data-name="圖層 2"><g id="圖層_1-2" data-name="圖層 1"><path class="cls-1" d="M122.08,3.06A10.05,10.05,0,0,0,114.71,0H10.43A10.07,10.07,0,0,0,3.06,3.06,10.07,10.07,0,0,0,0,10.43V89.68a10.05,10.05,0,0,0,3.06,7.37,10.07,10.07,0,0,0,7.37,3.06H114.71a10.45,10.45,0,0,0,10.43-10.43V10.43a10.07,10.07,0,0,0-3.06-7.37ZM116.8,89.68a2.12,2.12,0,0,1-2.09,2.09H10.43a2.12,2.12,0,0,1-2.09-2.09V10.43a2.12,2.12,0,0,1,2.09-2.09H114.71a2.12,2.12,0,0,1,2.09,2.09Z"/><path class="cls-1" d="M29.2,41.72A12.46,12.46,0,0,0,41.71,29.2,12.45,12.45,0,0,0,29.2,16.69,12.46,12.46,0,0,0,16.69,29.2,12.48,12.48,0,0,0,29.2,41.72Z"/><path class="cls-1" d="M32.24,58.84,17.93,75.7c-3.57,4.2-2,7.65,3.54,7.65h82c5.49,0,7.82-3.94,5.13-8.75L83.82,30.4c-2.66-4.78-7.25-4.91-10.19-.24l-14.36,23c-2.91,4.67-8.75,6.14-12.93,3.28s-10.53-1.76-14.1,2.44Z"/></g></g></svg>